<?xml version="1.0" encoding="UTF-8"?>
<svg xmlns="http://www.w3.org/2000/svg" xmlns:xlink="http://www.w3.org/1999/xlink" version="1.1" viewBox="0 0 1118.1 1118.1">
  <defs>
    <style>
      .cls-1 {
        fill: url(#linear-gradient-3);
      }

      .cls-2 {
        fill: url(#linear-gradient-2);
      }

      .cls-3 {
        fill: url(#linear-gradient);
      }

      .cls-4 {
        isolation: isolate;
      }

      .cls-5 {
        fill: #9a563a;
      }
    </style>
    <linearGradient id="linear-gradient" x1="535" y1="-534.6" x2="804.9" y2="-534.6" gradientTransform="translate(0 870)" gradientUnits="userSpaceOnUse">
      <stop offset="0" stop-color="#99c355"/>
      <stop offset=".5" stop-color="#71bda8"/>
      <stop offset="1" stop-color="#5cb4dd"/>
    </linearGradient>
    <linearGradient id="linear-gradient-2" x1="439.6" y1="-476.2" x2="653.2" y2="-476.2" gradientTransform="translate(0 870)" gradientUnits="userSpaceOnUse">
      <stop offset="0" stop-color="#99c355"/>
      <stop offset=".5" stop-color="#71bda8"/>
      <stop offset="1" stop-color="#5cb4dd"/>
    </linearGradient>
    <linearGradient id="linear-gradient-3" x1="429.6" y1="-410.6" x2="931.7" y2="-410.6" gradientTransform="translate(0 870)" gradientUnits="userSpaceOnUse">
      <stop offset="0" stop-color="#99c355"/>
      <stop offset=".5" stop-color="#71bda8"/>
      <stop offset="1" stop-color="#5cb4dd"/>
    </linearGradient>
  </defs>
  <!-- Generator: Adobe Illustrator 28.6.0, SVG Export Plug-In . SVG Version: 1.2.0 Build 709)  -->
  <g>
    <g id="Layer_1">
      <g>
        <g class="cls-4">
          <g class="cls-4">
            <path class="cls-5" d="M78.5,902.7h19.6c7.7,22.7,15.1,43.5,22.1,62.4,7,19,11.9,31.6,14.7,37.9,1.2,2.8,2.7,4.9,4.5,6.1s4.2,1.8,7.2,1.8h1.8v7.2c-6.8-.3-12.1-.5-15.7-.6-3.7,0-6.7-.2-9.2-.2s-5.4,0-9.2.2c-3.8,0-9.2.3-16.3.6v-7.2h1.4c4.2,0,7.1-.5,8.6-1.5s2.3-2.7,2.3-5.2,0-1.6-.3-2.7c-.2-1-.6-2.4-1.2-4.3l-6.6-19.5c-3.1,0-7.1,0-12.1-.2-5,0-8.1,0-9.3,0-2.3,0-7,0-13.9.2h-5.9l-.3.8c-5.3,12.8-7.9,20.9-7.9,24.3s.8,4.8,2.4,6c1.6,1.2,4.2,1.9,7.9,1.9h1.4v7.2c-6.1-.3-10.9-.5-14.3-.6-3.4,0-6.2-.2-8.4-.2s-4.2,0-7.2.2c-3,0-7.3.3-13,.6v-7.2c3.9,0,7-.7,9.3-2s4.3-3.6,5.9-6.8c2.3-4.2,7.5-15.9,15.6-35.1s16.8-40.7,26.1-64.3v.3ZM82.9,922.1l-17.6,44.5c2,0,4.2,0,6.5,0h19.4c2.5,0,4.8,0,6.9,0l-15.3-44.5h0Z"/>
            <path class="cls-5" d="M140,903.3c5.9.3,10.8.5,14.9.6,4.1,0,7.7.2,10.9.2s5.2,0,8.8-.2c3.5,0,8.4-.3,14.7-.6v7.2c-3.6,0-6.2.3-7.9.9s-2.5,1.6-2.5,3,1.1,4.8,3.2,8.7c.6,1.1,1,1.9,1.4,2.5l17.8,31.8,5.4-9.3c11.4-19.8,17.1-30.8,17.1-33.2s-.6-2.7-1.9-3.4c-1.2-.7-3.2-1-5.8-1h-1.8v-7.2c4.7.3,8.6.5,11.6.6s5.5.2,7.5.2,4.8,0,7.9-.2c3.1,0,7-.3,11.6-.6v7h-1.9c-5.2,0-11.5,6-18.8,17.9-1.6,2.7-2.9,4.9-3.9,6.4l-21.6,34.6.2,25.7c0,6.9,1,11.3,2.6,13.3s4.8,3,9.4,3,.9,0,1.6,0h1.7v7.3c-5.9-.3-11.2-.6-15.8-.7-4.6-.2-8.5-.2-11.8-.2s-8.7.2-17.4.6c-3.7.2-6.5.3-8.6.4v-7.3h3.5c4.7,0,7.9-1,9.6-3.1,1.7-2.1,2.6-6.4,2.7-12.8l.2-25.4-26.9-45c-.4-.6-.9-1.6-1.7-2.8-4.7-7.7-9.2-11.5-13.6-11.5s-1.1,0-1.4,0h-.9v-7.4Z"/>
            <path class="cls-5" d="M308.7,903.3v7.2h-2.7c-4.6,0-7.6,1.3-9.3,4s-2.4,9.4-2.4,20.2v18.4c0,10.8.2,18.5.6,23.1.4,4.5,1,8.1,1.9,10.7,2,6.4,5.6,11.3,10.8,14.7,5.2,3.4,11.5,5.1,19,5.1s11.4-1,15.8-3.1c4.3-2.1,7.9-5.2,10.6-9.5,1.8-2.8,3.1-6.6,3.9-11.2s1.2-11.4,1.2-20.5,0-4.6,0-8.6v-17.9c0-11.3-.8-18.4-2.4-21.3s-4.7-4.3-9.3-4.3-1.2,0-1.6,0h-1v-7.2c5,.3,9.1.5,12.4.6s6.1.2,8.5.2,4.9,0,8-.2c3.1,0,7.2-.3,12.3-.6v7.2h-1.3c-3.2,0-5.6.4-7.2,1.1s-2.7,2-3.4,3.8c-1,2.7-1.7,14.4-1.9,35v11.2c0,18.4-2.1,31-6,37.8-3.9,6.9-9.6,12.2-17.1,15.9-7.5,3.8-16.3,5.6-26.2,5.6s-17.3-1.5-24.4-4.5c-7.1-3-12.7-7.3-16.8-12.9-3.1-4.2-5.2-9-6.5-14.5s-1.9-13.6-1.9-24.5,0-8.1.2-15.5.2-13.3.2-17.8c0-9.4-.8-15.2-2.3-17.5s-4.5-3.4-9.1-3.4h-1.9v-7.2c6.1.3,11,.5,14.8.6s7,.2,9.8.2,5.7,0,9.5-.2c3.8,0,8.9-.3,15.4-.6l-.2.4Z"/>
            <path class="cls-5" d="M395.3,1011.1c.4,0,.8,0,1.2,0h1.9c4.4,0,7.4-1.4,8.9-4.3s2.3-10.6,2.3-23v-14.5l.3-18c0-3.8,0-7.6,0-11.4v-13.5c0-5.2-.8-11.1-2.5-13.1-1.6-2-4.7-3-9.2-3h-1.7v-7.1c5.7.3,10.5.5,14.3.6s7,.2,9.8.2c4,0,8.9,0,14.8-.4s9.9-.4,11.9-.4c13.3,0,23.8,2.8,31.5,8.3s11.5,13,11.5,22.5-1.9,11.9-5.8,16.7c-3.8,4.8-9.6,9-17.3,12.4l15.8,22.2c7.5,11.7,13,19.1,16.5,22.1s7.2,4.5,11.1,4.5.5,0,.9,0h.9v6.8c-3.3.3-6.1.5-8.5.6s-4.5.2-6.4.2c-6.5,0-11.7-.7-15.4-2.2-3.7-1.4-7-3.9-10-7.5-1.4-1.7-4.8-7-10.3-16.1-5.5-9-10.3-16.8-14.4-23.2-3.3,0-6.3.2-8.9.2h-7.5v21.4c0,8.2.8,13.4,2.4,15.5s4.8,3.2,9.5,3.2h2.3v7.2c-4.4-.3-8.8-.5-13.2-.6s-8.9-.2-13.5-.2-3.7,0-6.6,0c-2.9,0-8.5.3-16.9.7v-7.1h.2ZM431.4,960.3c2.8.2,5.3.3,7.2.4,2,0,3.6,0,5,0s3.4,0,5.3,0c1.9,0,3.8-.2,5.9-.4,4.7-3,8.1-6.4,10.3-10.3,2.2-3.8,3.3-8.3,3.3-13.5s-2.3-12.1-6.8-16.3c-4.5-4.2-10.6-6.2-18.1-6.2s-4.4,0-6.3.2-3.8.4-5.6.7c0,5.9,0,12,0,18.4v27h-.1Z"/>
            <path class="cls-5" d="M501.5,903.3c1.8,0,4.4.2,7.6.3,8.4.4,14.1.6,16.9.6s10.7-.2,20.8-.7c2.6,0,4.6-.2,6-.2v7c-5,0-8.3.6-9.9,1.6s-2.3,2.8-2.3,5.6.2,2.3.6,3.9,1.1,3.9,2.2,7.2l23.4,65.5.5-1.3c18.5-46.2,27.8-71.4,27.8-75.8s-.8-4.3-2.3-5.2c-1.6-1-4.7-1.5-9.5-1.6v-6.8c.9,0,2.1,0,3.8.2,8.2.5,14,.8,17.3.8s7.9-.2,15.6-.7c2.4,0,4.2-.2,5.5-.2v7.2c-2.1,0-3.9.2-5.5.5s-2.9.8-4,1.4c-2,1.3-5.6,7.9-10.5,19.9-2.1,5-3.8,8.9-5,11.8-11.1,26-19,44.8-23.8,56.3-4.7,11.6-7.1,17.9-7.1,19h-16.5c0-1.3-3.1-10.7-9.2-28s-13.4-36.6-21.8-57.7c-.4-1.1-1.1-2.7-1.9-4.8-4.9-12.6-10.4-18.8-16.5-18.8s-.6,0-1,0h-1v-6.9h-.2Z"/>
            <path class="cls-5" d="M633.7,903.1c9.1.4,17.6.7,25.3.8,7.7.2,14.5.3,20.4.3,9.8,0,18.1,0,24.9-.3,6.8-.2,13.1-.5,19-.8,0,4.7.3,9.3.6,13.8.3,4.5.8,9.1,1.4,13.7l-7.2,1c-.8-6.7-3-11.2-6.6-13.6-3.7-2.4-11-3.5-22.1-3.5s-4.6,0-7.9,0c-3.3,0-7.3.2-12.1.4,0,7.1-.2,13.9-.3,20.4,0,6.5-.2,12.7-.3,18.7h23.2c7.4,0,12.3-.7,14.6-2.2,2.3-1.4,3.5-4.2,3.7-8.3l6,.6c0,2.7,0,6.1-.2,10.1-.2,4.1-.2,6.8-.2,8.3s0,3.3,0,5.6c0,2.3.2,5,.4,8.1l-6.8.5v-1c0-4.6-1.3-7.7-4-9.3-2.7-1.6-8.9-2.4-18.8-2.4h-18.1v24c0,5,0,11,.2,17.9,2.4.3,5.4.6,9.1.8,3.6.2,7.6.3,11.9.3,12.8,0,21.4-1.3,25.6-4,4.3-2.7,7.7-7.8,10.3-15.5l7.4,2.3c-1.8,5.2-3.3,10.1-4.5,14.7-1.3,4.7-2.3,9.2-3.2,13.6-12.7-.4-22.8-.7-30.3-.9-7.5-.2-14.2-.2-20-.2s-17.2.2-31.6.7c-5,.2-8.8.3-11.4.4v-7.1c.3,0,.7,0,1.1,0h1.8c4.5,0,7.6-1.4,9.2-4.1,1.6-2.8,2.4-10,2.4-21.8v-15.5l.2-18v-3.6c.2-6.6.2-11.1.2-13.5v-11.9c0-4.7-.8-7.9-2.5-9.7-1.7-1.8-4.6-2.7-8.8-2.7h-1.9v-7.2h-.2Z"/>
            <path class="cls-5" d="M743.7,1018.2v-7.2c.4,0,.8,0,1.2,0h1.9c4.5,0,7.5-1.5,9-4.5,1.6-3,2.3-10.6,2.3-22.9v-14.3l.2-19.2v-3.9c.2-7.9.2-13.3.2-16.3,0-8-.8-13.3-2.3-15.8s-4.4-3.8-8.6-3.8-1.4,0-1.9,0h-1.1v-7.2c4.6.3,8.6.5,12.1.6,3.4,0,6.5.2,9.3.2,5,0,11.4-.2,19.2-.7,7.8-.5,13.1-.7,15.9-.7,20.7,0,37,5.1,48.7,15.4,11.8,10.3,17.6,24.4,17.6,42.3s-6.2,31.4-18.6,42.2c-12.4,10.7-28.9,16.1-49.4,16.1s-6.6-.2-14.7-.6-15.5-.6-22.1-.6-6.8.2-15.8.6l-3.5.2h.4ZM780,1005.3c3.3.8,6.6,1.3,9.9,1.7,3.2.3,6.6.5,9.9.5,13.9,0,24.6-3.8,32.1-11.5s11.3-18.6,11.3-32.9-4-27.7-12.1-36.4-19.3-12.9-33.8-12.9-4.5,0-7.1.3c-2.7.2-5.8.5-9.5,1-.2,13.1-.4,25.5-.5,37.2s-.2,22.4-.2,32v20.9h0Z"/>
            <path class="cls-5" d="M923,902.7h19.6c7.7,22.7,15.1,43.5,22.1,62.4,7,19,11.9,31.6,14.7,37.9,1.2,2.8,2.7,4.9,4.5,6.1s4.2,1.8,7.2,1.8h1.8v7.2c-6.8-.3-12.1-.5-15.7-.6-3.7,0-6.7-.2-9.2-.2s-5.4,0-9.2.2c-3.8,0-9.2.3-16.3.6v-7.2h1.5c4.2,0,7.1-.5,8.6-1.5s2.3-2.7,2.3-5.2,0-1.6-.3-2.7c-.2-1-.6-2.4-1.2-4.3l-6.6-19.5c-3.1,0-7.1,0-12.1-.2-5,0-8.1,0-9.3,0-2.3,0-7,0-13.9.2h-5.9l-.3.8c-5.3,12.8-7.9,20.9-7.9,24.3s.8,4.8,2.4,6,4.2,1.9,7.9,1.9h1.4v7.2c-6.1-.3-10.9-.5-14.3-.6s-6.2-.2-8.4-.2-4.2,0-7.2.2c-3,0-7.3.3-13,.6v-7.2c3.9,0,7-.7,9.3-2s4.3-3.6,5.9-6.8c2.3-4.2,7.5-15.9,15.6-35.1s16.8-40.7,26.1-64.3v.3ZM927.4,922.1l-17.6,44.5c2,0,4.2,0,6.5,0h19.4c2.5,0,4.8,0,6.9,0l-15.3-44.5h0Z"/>
          </g>
        </g>
        <g>
          <g class="cls-4">
            <g class="cls-4">
              <path class="cls-5" d="M397.1,802.6v1.9c0,2.6,0,5.2.3,8,.2,2.8.5,5.7.8,8.7l-4,.7c-.7-5.3-3.2-9.4-7.5-12.4s-9.8-4.4-16.7-4.4-16.2,2.8-21.2,8.4-7.5,13.5-7.5,23.8,2.9,19.8,8.6,26.6c5.7,6.8,13.1,10.2,22.2,10.2s10.7-1.3,14.9-4c4.2-2.6,7.5-6.5,9.8-11.6l3.7,1.8c-1.2,2.4-2.2,4.8-3.2,7.3s-1.8,5-2.5,7.5c-4,1.8-8,3.2-12.1,4.1s-8.2,1.4-12.4,1.4c-12.2,0-22-3.8-29.6-11.3s-11.3-17.5-11.3-29.7,4-22,11.9-29.6c8-7.6,18.3-11.4,30.9-11.4s7.7.3,11.9,1c4.2.7,8.5,1.7,13,3.1h0Z"/>
              <path class="cls-5" d="M409.9,800.2c6.4.2,12.2.4,17.2.5,5.1,0,9.4.2,13.1.2s8.2,0,12.4-.2c4.2,0,8.4-.3,12.7-.5,0,2.8,0,5.6.3,8.4.2,2.9.4,5.8.7,8.7l-3.7.3c-.3-4.4-1.7-7.4-4.1-8.9s-7.6-2.3-15.7-2.3-5.8,0-11.3.2h-2.4c0,4.4-.2,9.8-.3,16.2,0,6.4-.2,10.5-.3,12.4h16.3c5.3,0,8.8-.5,10.5-1.5s2.6-2.8,2.8-5.5l3.5.3c-.3,2.3-.4,4.4-.6,6.3,0,1.9-.2,3.7-.2,5.4s0,3,.3,6.2c0,1.1,0,2,.2,2.6h-3.6c0,0,0-.3,0-.3,0-3.1-.9-5.2-2.7-6.3s-6.1-1.7-12.7-1.7h-13.8v22c0,2.6,0,5.7.2,9.2,1.8.2,3.9.4,6.2.5,2.3,0,4.9.2,7.7.2,9.2,0,15.3-.9,18.2-2.7,2.9-1.8,5.2-5.2,7-10.3l4,1.3c-1.1,3-2.1,6-2.9,9-.8,2.9-1.6,5.9-2.2,8.8-5.8-.2-11.1-.4-16.1-.5s-9.4-.2-13.4-.2-14.3.2-26.4.6h-2v-3.5h1.8c4.9,0,7.4-6.9,7.4-20.6s0-6.1,0-8.1l.2-15v-19.3c0-3.6-.6-5.3-1.8-6.5-1.2-1.2-3.3-1.8-6.3-1.8h-.4v-3.7h.1Z"/>
              <path class="cls-5" d="M476.9,800.2c2.7,0,5.3.3,7.6.3s4.5,0,6.3,0,4.1,0,6.4,0c2.3,0,4.7-.2,7.2-.3v3.8h-.8c-2,0-3.6.2-4.6.6-1.1.4-1.6,1-1.6,1.8s.9,2.9,2.7,5.9c.5.8.9,1.5,1.2,2l13.3,23.7c6-9.6,10.5-17.1,13.5-22.3,3-5.2,4.5-8.3,4.5-9.1s-.4-1.5-1.3-2c-.9-.4-2.4-.6-4.4-.6h-.9v-3.8c2.2,0,4.3.3,6.3.3s3.7,0,5.2,0,3.8,0,5.7,0c1.9,0,3.9-.2,6-.3v3.8h-1.5c-3.3,0-7.5,4.2-12.7,12.5-1.6,2.6-2.9,4.7-3.9,6.2l-13.9,21.2.2,19.6c0,5.1.7,8.3,1.8,9.5s3.3,1.9,6.5,1.9h1.9v3.9c-3,0-5.9-.3-8.7-.3s-5.2,0-7.3,0-4.1,0-6.9,0c-2.7,0-5.7.2-8.9.3v-3.9h2.3c3.2,0,5.4-.7,6.5-2.2s1.7-4.5,1.8-9.1l.2-19.5-17.8-30c-.3-.5-.8-1.2-1.3-2.1-3.3-5.5-6.2-8.3-8.9-8.3s-.4,0-.7,0-.7,0-1.2.2v-3.8h.2Z"/>
              <path class="cls-5" d="M555.6,800c3.9.2,6.9.4,8.9.5,2,0,3.7,0,4.9,0,2.4,0,4.7,0,7,0,2.3,0,4.6-.2,6.9-.4v3.9h-1.7c-2.9,0-4.9,1-5.9,3s-1.5,6.6-1.5,13.8v10.9l.2,40.3c2.1,0,4,.2,5.9.2h5.3c9.8,0,16.2-.9,19-2.7,2.8-1.8,5.1-5.3,6.8-10.5l4,1.2c-1.1,3.2-2.1,6.3-3,9.3s-1.7,6.1-2.3,9.2c-6.1-.2-11.7-.3-16.8-.4-5.1,0-9.9,0-14.4,0s-6.7,0-10.6,0c-3.9,0-8.5.2-13.8.4v-3.6h1.8c5,0,7.4-7.1,7.5-21.2v-22.5c0-1.6,0-3.7.2-6.2v-5.3c0-6.7-.5-11.1-1.6-13.2-1.1-2-3.2-3.1-6.3-3.1h-.4v-3.9.3Z"/>
              <path class="cls-5" d="M659.8,798.4c5.6,0,10.6.8,14.9,2.4,4.4,1.6,8.4,4.1,11.9,7.4,4.3,4,7.5,8.7,9.8,14s3.4,11,3.4,16.9-1.2,11.9-3.6,17.3-5.8,10.1-10.2,14c-3.5,3.2-7.6,5.6-12.3,7.4-4.7,1.8-9.4,2.7-14.1,2.7s-11.3-1.1-16.2-3.2c-4.9-2.2-9.3-5.4-13.1-9.6-3.4-3.9-6.1-8.3-7.9-13.1-1.8-4.8-2.7-9.9-2.7-15.3s1.1-11.3,3.3-16.4,5.3-9.7,9.5-13.6c3.7-3.5,8-6.2,12.7-8.1s9.6-2.8,14.6-2.8h0ZM687.7,841.1c0-10.7-2.8-19.4-8.3-26.3-5.5-6.8-12.4-10.3-20.8-10.3s-14.5,2.9-19.3,8.8c-4.9,5.9-7.3,13.7-7.3,23.6s2.8,19.9,8.3,26.9,12.4,10.5,20.7,10.5,14.4-3,19.3-9.1c4.9-6,7.3-14.1,7.3-24.2h.1Z"/>
              <path class="cls-5" d="M708.4,800.2c1.7,0,3.4.3,5,.3s3.2,0,4.8,0,2.5,0,4.1,0,3.3-.2,5.1-.3c.5,1.2,1.1,2.5,2,3.7.8,1.3,1.9,2.7,3.2,4.2l45.4,53.7c0-5.6-.2-13-.3-22.2-.3-19.3-.6-29.7-1-31.2-.4-1.7-1.2-2.9-2.3-3.5s-2.9-1-5.5-1h-1.7v-3.8h2c5.2.3,8.9.4,11,.4s5.9,0,11.3-.4h1.8v3.8h-1.8c-4.9,0-7.4,6.8-7.5,20.5v8.1l-.2,14.6c0,2.2,0,4.4,0,6.7v9.4c0,4,0,7.9.2,10.4,0,2.5.3,4.5.6,6h-6.1c-.6-1.5-2.8-4.4-6.7-8.8l-.6-.7-47.2-55.5v1.3c.2,34.3.6,52.5,1.1,54.5.4,1.7,1.2,2.9,2.3,3.5,1.1.7,2.9,1,5.4,1h1.7v3.9c-.6,0-1.4,0-2.4,0-5.1-.2-8.6-.3-10.5-.3s-3.8,0-6,0c-2.2,0-4.5.2-6.9.3v-3.8h1.8c4.9,0,7.4-6.8,7.5-20.4v-8.1l.3-14.6v-19.5c0-3.9-.6-5.3-1.8-6.5-1.2-1.2-3.4-1.8-6.4-1.8h-1.5v-3.8h0Z"/>
            </g>
          </g>
          <g>
            <polygon class="cls-5" points="821.7 834.2 1013.6 838.2 821.7 842.2 821.7 834.2 821.7 834.2"/>
            <polygon class="cls-5" points="299.2 834.2 107.3 838.2 299.2 842.2 299.2 834.2 299.2 834.2"/>
          </g>
        </g>
      </g>
      <g>
        <g class="cls-4">
          <g class="cls-4">
            <path class="cls-5" d="M98.7,1050.7l14.5,17.8v-17.8h1.6v21.6h-.6l-14.5-17.8v17.8h-1.7v-21.6h.7Z"/>
            <path class="cls-5" d="M144.2,1072.3l-2.4-5.3h-12.9l-2.3,5.3h-1.8l9.7-21.6h1.8l9.7,21.6h-1.8ZM141.2,1065.5l-5.8-13.1-5.8,13.1h11.6Z"/>
            <path class="cls-5" d="M159.1,1052.2h-7.8v-1.5h17.3v1.5h-7.8v20.1h-1.7v-20.1Z"/>
            <path class="cls-5" d="M194.5,1050.7v13.4c0,11.3-16.5,11.3-16.5,0v-13.4h1.6v13.4c0,9.3,13.2,9.2,13.2,0v-13.4h1.7Z"/>
            <path class="cls-5" d="M223.7,1072.3h-2.2l-7.5-8.2h-5.9v8.2h-1.7v-21.6h9.5c4.7,0,7.1,3.4,7.1,6.7s-2.3,6.6-7,6.6l7.6,8.3h.1ZM208.2,1062.6h7.6c3.8,0,5.4-2.1,5.5-5.1,0-2.5-1.7-5.1-5.3-5.1h-7.8v10.3h0Z"/>
            <path class="cls-5" d="M235.8,1060.7h12.6v1.5h-12.6v8.5h13.6v1.6h-15.2v-21.6h14.9v1.6h-13.2v8.4h0Z"/>
            <path class="cls-5" d="M261,1050.6v7.9h-1.4v-7.9h1.4Z"/>
            <path class="cls-5" d="M286.3,1054.9c-1.6-2.5-4.1-2.9-6.5-2.9s-6.5.9-6.5,4.4,3,3.4,6.6,4.1c4.2.8,8.5,1.5,8.5,6.2s-4.9,6-8.5,6-7.2-1.4-8.8-4.7l1.5-.7c1.3,2.6,4.7,3.9,7.4,3.9s6.9-.7,6.9-4.6-3.5-3.9-7.1-4.6c-3.9-.8-8-1.6-8-5.5s4.7-6,8.2-6,5.8.5,7.9,3.7l-1.4.8h-.2Z"/>
            <path class="cls-5" d="M328.7,1072.3v-9.8h-13.7v9.8h-1.7v-21.6h1.7v10.3h13.7v-10.3h1.7v21.6h-1.7Z"/>
            <path class="cls-5" d="M344.3,1060.7h12.6v1.5h-12.6v8.5h13.6v1.6h-15.2v-21.6h14.9v1.6h-13.2v8.4h0Z"/>
            <path class="cls-5" d="M385.9,1072.3l-2.4-5.3h-12.9l-2.3,5.3h-1.8l9.7-21.6h1.8l9.7,21.6h-1.8,0ZM382.9,1065.5l-5.8-13.1-5.8,13.1h11.6Z"/>
            <path class="cls-5" d="M399.4,1050.7v20h12.1v1.6h-13.8v-21.6h1.7Z"/>
            <path class="cls-5" d="M421.3,1072.3v-21.6h1.6v21.6h-1.6Z"/>
            <path class="cls-5" d="M435.9,1050.7l14.5,17.8v-17.8h1.6v21.6h-.6l-14.5-17.8v17.8h-1.7v-21.6h.7Z"/>
            <path class="cls-5" d="M480.9,1054.7c-1.9-1.8-4.5-2.8-6.9-2.8-6.3,0-9.5,4.6-9.5,9.6s3.2,9.5,9.5,9.5,4.7-.8,6.6-2.5v-6h-7.5v-1.4h9.1v8.1c-2.2,2.2-4.9,3.5-8.1,3.5-7.3,0-11.1-5.1-11.1-11s4.6-11.2,11.1-11.2,5.7,1.1,7.9,3.2l-1,1h0Z"/>
            <path class="cls-5" d="M495,1071.4v.5l-1.2,3.1h-1.3l1-2.6c-.4-.2-.7-.5-.7-1.1,0-1.6,2.4-1.6,2.4,0h-.2Z"/>
            <path class="cls-5" d="M520.7,1072.3v-21.6h1.6v21.6h-1.6Z"/>
            <path class="cls-5" d="M535.3,1050.7l14.5,17.8v-17.8h1.6v21.6h-.6l-14.5-17.8v17.8h-1.7v-21.6h.7Z"/>
            <path class="cls-5" d="M577.4,1054.9c-1.6-2.5-4.1-2.9-6.5-2.9s-6.5.9-6.5,4.4,3,3.4,6.6,4.1c4.2.8,8.5,1.5,8.5,6.2s-4.9,6-8.5,6-7.2-1.4-8.8-4.7l1.5-.7c1.3,2.6,4.7,3.9,7.4,3.9s6.9-.7,6.9-4.6-3.5-3.9-7.1-4.6c-3.9-.8-8-1.6-8-5.5s4.7-6,8.2-6,5.8.5,7.9,3.7l-1.4.8h-.2Z"/>
            <path class="cls-5" d="M591.8,1064.8v7.5h-1.7v-21.6h9.5c9.4,0,9.4,14.1,0,14.1h-7.8ZM591.8,1052.3v11.1h7.8c7.2,0,7.2-11.1,0-11.1h-7.8Z"/>
            <path class="cls-5" d="M616.9,1072.3v-21.6h1.6v21.6h-1.6Z"/>
            <path class="cls-5" d="M648,1072.3h-2.2l-7.5-8.2h-5.9v8.2h-1.7v-21.6h9.5c4.7,0,7.1,3.4,7.1,6.7s-2.3,6.6-7,6.6l7.6,8.3h0ZM632.5,1062.6h7.6c3.8,0,5.4-2.1,5.5-5.1,0-2.5-1.7-5.1-5.3-5.1h-7.8v10.3h0Z"/>
            <path class="cls-5" d="M660.2,1060.7h12.6v1.5h-12.6v8.5h13.6v1.6h-15.2v-21.6h14.9v1.6h-13.2v8.4h-.1Z"/>
            <path class="cls-5" d="M702.9,1061.3c0,5.5-3.4,11-10.9,11h-7.3v-21.6h7.3c7.3,0,10.8,5.2,10.9,10.5h0ZM686.3,1052.3v18.4h5.6c6.4,0,9.4-4.8,9.3-9.4,0-4.5-3-9-9.3-9h-5.6Z"/>
            <path class="cls-5" d="M744.1,1056.6c0,2.2-1.4,3.9-3.5,4.6,2.7.7,4.3,2.9,4.3,5.4,0,4.4-4.1,5.6-7.8,5.6h-8.8v-21.6h8.8c3.6,0,7.1,1.8,7.1,5.9h0ZM729.8,1060.5h7.4c2.6,0,5.3-.8,5.3-3.9s-2.8-4.5-5.5-4.5h-7.2v8.3h0ZM729.8,1070.7h7.2c2.7,0,6.2-.6,6.2-4.1s-3.1-4.6-6-4.6h-7.4v8.6h0Z"/>
            <path class="cls-5" d="M760.8,1063.7l-8.4-12.9h1.9l7.3,11.3,7.3-11.3h1.9l-8.4,12.9v8.6h-1.7v-8.6h0Z"/>
            <path class="cls-5" d="M798.5,1052.2h-7.8v-1.5h17.3v1.5h-7.8v20.1h-1.7v-20.1Z"/>
            <path class="cls-5" d="M834.8,1072.3h-2.2l-7.5-8.2h-5.9v8.2h-1.7v-21.6h9.5c4.7,0,7.1,3.4,7.1,6.7s-2.3,6.6-7,6.6l7.6,8.3h0ZM819.3,1062.6h7.6c3.8,0,5.4-2.1,5.5-5.1,0-2.5-1.7-5.1-5.3-5.1h-7.8v10.3h0Z"/>
            <path class="cls-5" d="M862.5,1072.3l-2.4-5.3h-12.9l-2.3,5.3h-1.8l9.7-21.6h1.8l9.7,21.6h-1.8,0ZM859.4,1065.5l-5.8-13.1-5.8,13.1h11.6Z"/>
            <path class="cls-5" d="M892.5,1061.3c0,5.5-3.4,11-10.9,11h-7.3v-21.6h7.3c7.3,0,10.8,5.2,10.9,10.5h0ZM875.9,1052.3v18.4h5.6c6.4,0,9.4-4.8,9.3-9.4,0-4.5-3-9-9.3-9h-5.6Z"/>
            <path class="cls-5" d="M903.4,1072.3v-21.6h1.6v21.6h-1.6Z"/>
            <path class="cls-5" d="M922.5,1052.2h-7.8v-1.5h17.3v1.5h-7.8v20.1h-1.7v-20.1Z"/>
            <path class="cls-5" d="M941.6,1072.3v-21.6h1.6v21.6h-1.6Z"/>
            <path class="cls-5" d="M975.9,1061.5c0,5.7-3.6,11.1-10.9,11.1s-10.9-5.5-10.9-11.2,3.6-11.1,10.9-11.1,10.9,5.3,10.9,11.2ZM955.8,1061.5c0,4.9,3.1,9.6,9.2,9.6s9.3-4.7,9.3-9.6-3.1-9.6-9.3-9.6-9.3,4.5-9.2,9.6Z"/>
            <path class="cls-5" d="M987.4,1050.7l14.5,17.8v-17.8h1.6v21.6h-.6l-14.5-17.8v17.8h-1.7v-21.6h.7Z"/>
          </g>
        </g>
        <g>
          <path class="cls-5" d="M24.6,1060.2h54.2c.8,0,1.5.7,1.5,1.5h0c0,.8-.7,1.5-1.5,1.5H24.6c-.8,0-1.5-.7-1.5-1.5h0c0-.8.7-1.5,1.5-1.5Z"/>
          <path class="cls-5" d="M1042.1,1060.2h54.2c.8,0,1.5.7,1.5,1.5h0c0,.8-.7,1.5-1.5,1.5h-54.2c-.8,0-1.5-.7-1.5-1.5h0c0-.8.7-1.5,1.5-1.5Z"/>
        </g>
      </g>
      <g>
        <path class="cls-5" d="M632.2,667.4c-2.5,16.8,3.6,27.8,9.8,36.7.9-10.8.8-23.4-9.8-36.7ZM483,667.4c-10.6,13.3-10.7,25.8-9.8,36.7,6.2-8.9,12.3-19.9,9.8-36.7ZM353.7,592.7c-15.8,6.2-22.2,17-26.8,26.8,9.8-4.6,20.6-11,26.8-26.8ZM279.1,463.5c-16.8-2.5-27.8,3.6-36.7,9.8,10.8.9,23.4.8,36.7-9.8ZM279.1,314.3c-13.3-10.6-25.8-10.7-36.7-9.8,8.9,6.2,19.9,12.3,36.7,9.8ZM353.7,185.1c-6.2-15.8-17-22.2-26.8-26.8,4.6,9.8,11,20.6,26.8,26.8ZM483,110.5c2.5-16.8-3.6-27.8-9.8-36.7-.9,10.8-.8,23.4,9.8,36.7ZM632.2,110.5c10.6-13.3,10.7-25.8,9.8-36.7-6.2,8.9-12.3,19.9-9.8,36.7ZM761.4,185.1c15.8-6.2,22.2-17,26.8-26.8-9.8,4.6-20.6,11-26.8,26.8ZM836,314.3c16.8,2.5,27.8-3.6,36.7-9.8-10.8-.9-23.4-.8-36.7,9.8ZM836,463.5c13.3,10.6,25.8,10.7,36.7,9.8-8.9-6.2-19.9-12.3-36.7-9.8ZM761.4,592.7c6.2,15.8,17,22.2,26.8,26.8-4.6-9.8-11-20.6-26.8-26.8ZM557.6,751.5s.2,0,.3-.2l5.7-6c8.1-8.4,12.3-19.5,12.1-31.2-.3-11.7-5.1-22.5-13.5-30.6l-4.5-4.3-4.5,4.3c-8.4,8.1-13.2,18.9-13.5,30.6-.3,11.7,4,22.7,12.1,31.2l5.7,6s.2.2.3.2h-.2ZM376.3,702.9h.3l7.9-2.3c11.2-3.3,20.4-10.7,26-21,5.6-10.2,6.9-22,3.6-33.2l-1.8-6-6.1,1.5c-11.3,2.8-20.9,9.8-27,19.7-6.1,10-7.9,21.7-5.1,33l2,8v.3h.2ZM243.5,570.2h.3l8,2c11.3,2.8,23.1.9,33-5.1,10-6.1,17-15.6,19.7-27l1.5-6.1-6-1.8c-11.2-3.3-23-2-33.2,3.6s-17.7,14.8-21,26l-2.3,7.9v.3h0v.2ZM195,388.9s0,.2.2.3l6,5.7c8.4,8.1,19.5,12.3,31.2,12.1,11.7-.3,22.5-5.1,30.6-13.5l4.3-4.5-4.3-4.5c-8.1-8.4-18.9-13.2-30.6-13.5-11.7-.3-22.7,4-31.2,12.1l-6,5.7s-.2.2-.2.3v-.2h0ZM243.5,207.6v.3l2.3,7.9c3.3,11.2,10.7,20.4,21,26,10.2,5.6,22,6.9,33.2,3.6l6-1.8-1.5-6.1c-2.8-11.3-9.8-20.9-19.7-27-10-6.1-21.7-7.9-33-5.1l-8,2s-.2,0-.3.1h0ZM376.3,74.9v.3l-2,8c-2.8,11.3-.9,23.1,5.1,33,6.1,10,15.6,17,27,19.7l6.1,1.5,1.8-6c3.3-11.2,2-23-3.6-33.2s-14.8-17.7-26-21l-7.9-2.3h-.5ZM557.6,26.3s-.2.1-.3.2l-5.7,6c-8.1,8.4-12.3,19.5-12.1,31.2.3,11.7,5.1,22.5,13.5,30.6l4.5,4.3,4.5-4.3c8.4-8.1,13.2-18.9,13.5-30.6s-4-22.7-12.1-31.2l-5.7-6s-.2-.2-.3-.2h.2ZM738.9,74.9h-.3l-7.9,2.3c-11.2,3.3-20.4,10.7-26,21-5.6,10.2-6.9,22-3.6,33.2l1.8,6,6.1-1.5c11.3-2.8,20.9-9.8,27-19.7,6.1-10,7.9-21.7,5.1-33l-2-8v-.3h-.2ZM871.6,207.6s-.2,0-.3-.1l-8-2c-11.3-2.8-23.1-.9-33,5.1-10,6.1-17,15.6-19.7,27l-1.5,6.1,6,1.8c11.2,3.3,23,2,33.2-3.6s17.7-14.8,21-26l2.3-7.9v-.3h0ZM920.2,388.9s0-.2-.2-.3l-6-5.7c-8.4-8.1-19.5-12.3-31.2-12.1-11.7.3-22.5,5.1-30.6,13.5l-4.3,4.5,4.3,4.5c8.1,8.4,18.9,13.2,30.6,13.5s22.7-4,31.2-12.1l6-5.7s.2-.2.2-.3v.2h0ZM871.6,570.2v-.3l-2.3-7.9c-3.3-11.2-10.7-20.4-21-26-10.2-5.6-22-6.9-33.2-3.6l-6,1.8,1.5,6.1c2.8,11.3,9.8,20.9,19.7,27,10,6.1,21.7,7.9,33,5.1l8-2h.3v-.2ZM738.9,702.9v-.3l2-8c2.8-11.3.9-23.1-5.1-33-6.1-10-15.6-17-27-19.7l-6.1-1.5-1.8,6c-3.3,11.2-2,23,3.6,33.2s14.8,17.7,26,21l7.9,2.3h.5ZM557.6,704.9c1.4-5.7,2.9-9.6,1.9-15.6l-.5-2.6h0c7.6,7.2,11.9,17,12.1,27.4.2,10.5-3.6,20.4-10.8,28l-2.7,2.8-2.7-2.8c-7.2-7.6-11.1-17.5-10.8-28,.2-10.5,4.5-20.2,12.1-27.4h0l-.5,2.6c-1,6,.5,9.9,1.9,15.6ZM399.6,662.6c4.1-4.2,7.3-6.8,9.4-12.5l.9-2.5h0c2.9,10,1.8,20.6-3.2,29.8s-13.3,15.9-23.4,18.8l-3.8,1.1-.9-3.8c-2.5-10.2-.8-20.7,4.6-29.6,5.4-8.9,14-15.2,24.2-17.7h0l-1.7,2c-3.8,4.7-4.5,8.8-6.1,14.4ZM283.9,546.9c5.7-1.6,9.8-2.3,14.4-6.1l2-1.7h0c-2.5,10.2-8.8,18.8-17.7,24.2s-19.5,7.1-29.6,4.6l-3.8-.9,1.1-3.8c2.9-10,9.6-18.3,18.8-23.4,9.2-5,19.8-6.2,29.8-3.2h0l-2.5.9c-5.7,2.1-8.3,5.4-12.5,9.4ZM241.6,388.9c5.7,1.4,9.6,2.9,15.6,1.9l2.6-.5h0c-7.2,7.6-17,11.9-27.4,12.1-10.5.2-20.4-3.6-28-10.8l-2.8-2.7,2.8-2.7c7.6-7.2,17.5-11.1,28-10.8,10.5.2,20.2,4.5,27.4,12.1h0l-2.6-.5c-6-1-9.9.5-15.6,1.9ZM283.9,230.9c4.2,4.1,6.8,7.3,12.5,9.4l2.5.9h0c-10,2.9-20.6,1.8-29.8-3.2s-15.9-13.3-18.8-23.4l-1.1-3.8,3.8-.9c10.2-2.5,20.7-.8,29.6,4.6,8.9,5.4,15.2,14,17.7,24.2h0l-2-1.7c-4.7-3.8-8.8-4.5-14.4-6.1ZM399.6,115.2c1.6,5.7,2.3,9.8,6.1,14.4l1.7,2h0c-10.2-2.5-18.8-8.8-24.2-17.7-5.4-8.9-7.1-19.5-4.6-29.6l.9-3.8,3.8,1.1c10,2.9,18.3,9.6,23.4,18.8,5,9.2,6.2,19.8,3.2,29.8h0l-.9-2.5c-2.1-5.7-5.4-8.3-9.4-12.5h0ZM557.6,72.9c-1.4,5.7-2.9,9.6-1.9,15.6l.5,2.6h0c-7.6-7.2-11.9-17-12.1-27.4-.2-10.5,3.6-20.4,10.8-28l2.7-2.8,2.7,2.8c7.2,7.6,11.1,17.5,10.8,28-.2,10.5-4.5,20.2-12.1,27.4h0l.5-2.6c1-6-.5-9.9-1.9-15.6ZM715.6,115.2c-4.1,4.2-7.3,6.8-9.4,12.5l-.9,2.5h0c-2.9-10-1.8-20.6,3.2-29.8,5-9.2,13.3-15.9,23.4-18.8l3.8-1.1.9,3.8c2.5,10.2.8,20.7-4.6,29.6s-14,15.2-24.2,17.7h0l1.7-2c3.8-4.7,4.5-8.8,6.1-14.4h0ZM831.2,230.9c-5.7,1.6-9.8,2.3-14.4,6.1l-2,1.7h0c2.5-10.2,8.8-18.8,17.7-24.2,8.9-5.4,19.5-7.1,29.6-4.6l3.8.9-1.1,3.8c-2.9,10-9.6,18.3-18.8,23.4-9.2,5-19.8,6.2-29.8,3.2h0l2.5-.9c5.7-2.1,8.3-5.4,12.5-9.4h0ZM873.6,388.9c-5.7-1.4-9.6-2.9-15.6-1.9l-2.6.5h0c7.2-7.6,17-11.9,27.4-12.1,10.5-.2,20.4,3.6,28,10.8l2.8,2.7-2.8,2.7c-7.6,7.2-17.5,11.1-28,10.8-10.5-.2-20.2-4.5-27.4-12.1h0l2.6.5c6,1,9.9-.5,15.6-1.9ZM831.2,546.9c-4.2-4.1-6.8-7.3-12.5-9.4l-2.5-.9h0c10-2.9,20.6-1.8,29.8,3.2,9.2,5,15.9,13.3,18.8,23.4l1.1,3.8-3.8.9c-10.2,2.5-20.7.8-29.6-4.6-8.9-5.4-15.2-14-17.7-24.2h0l2,1.7c4.7,3.8,8.8,4.5,14.4,6.1h0ZM715.6,662.6c-1.6-5.7-2.3-9.8-6.1-14.4l-1.7-2h0c10.2,2.5,18.8,8.8,24.2,17.7,5.4,8.9,7.1,19.5,4.6,29.6l-.9,3.8-3.8-1.1c-10-2.9-18.3-9.6-23.4-18.8-5-9.2-6.2-19.8-3.2-29.8h0l.9,2.5c2.1,5.7,5.4,8.3,9.4,12.5ZM583.9,613.2l4,16.1-6.6,8.7c-.8,1-.6,2.4.4,3.1.4.3.9.5,1.4.5s1.3-.3,1.8-.9l4.5-5.8,6.3,25.1-6.8,8.9c-.8,1-.6,2.4.4,3.1.4.3.9.5,1.4.5s1.3-.3,1.8-.9l4.6-6,8.5,34c-27.4-19.5-36.6-56.3-21.6-86.4h-.1ZM692.5,570l11.6,11.9-1.4,10.9c-.2,1.2.7,2.4,1.9,2.5.5,0,1,0,1.4-.3.6-.3,1-.9,1.1-1.7l.9-7.3,18,18.6-1.4,11.1c-.2,1.2.7,2.4,1.9,2.5.5,0,1,0,1.4-.3.6-.3,1-.9,1.1-1.7l1-7.5,24.3,25.2c-33.5-3.2-59.8-30.5-61.9-64h0ZM765,478.3l16,4.6,4.2,10.1c.5,1.1,1.8,1.7,2.9,1.2.5-.2.8-.5,1.1-.9.3-.6.4-1.3,0-2l-2.8-6.8,24.9,7.1,4.3,10.3c.5,1.1,1.8,1.7,2.9,1.2.5-.2.8-.5,1.1-.9.3-.6.4-1.3,0-2l-2.9-7,33.7,9.6c-30.6,14-67.1,3.5-85.6-24.5h.2ZM781.9,362.6l16.1-4,8.7,6.6c1,.8,2.4.6,3.1-.4.3-.4.5-.9.5-1.4s-.3-1.3-.9-1.8l-5.8-4.5,25.1-6.3,8.9,6.8c1,.8,2.4.6,3.1-.4.3-.4.5-.9.5-1.4s-.3-1.3-.9-1.8l-6-4.6,34-8.5c-19.5,27.4-56.3,36.6-86.4,21.6h0ZM738.6,254l11.9-11.6,10.9,1.4c1.2.2,2.4-.7,2.5-1.9,0-.5,0-1-.3-1.4-.3-.6-.9-1-1.7-1.1l-7.3-.9,18.6-18,11.1,1.4c1.2.2,2.4-.7,2.5-1.9,0-.5,0-1-.3-1.4-.3-.6-.9-1-1.7-1.1l-7.5-1,25.2-24.3c-3.2,33.5-30.5,59.8-64,61.9h.1ZM646.9,181.5l4.6-16,10.1-4.2c1.1-.5,1.7-1.8,1.2-2.9-.2-.5-.5-.8-.9-1.1-.6-.3-1.3-.4-2-.1l-6.8,2.8,7.1-24.9,10.3-4.3c1.1-.5,1.7-1.8,1.2-2.9-.2-.5-.5-.8-.9-1.1-.6-.3-1.3-.4-2-.1l-7,2.9,9.6-33.7c14,30.6,3.5,67.1-24.5,85.6h0ZM531.2,164.6l-4-16.1,6.6-8.7c.8-1,.6-2.4-.4-3.1-.4-.3-.9-.5-1.4-.5s-1.3.3-1.8.9l-4.5,5.8-6.3-25.1,6.8-8.9c.8-1,.6-2.4-.4-3.1-.4-.3-.9-.5-1.4-.5s-1.3.3-1.8.9l-4.6,6-8.5-34c27.4,19.5,36.6,56.3,21.6,86.4h.1ZM422.6,207.8l-11.6-11.9,1.4-10.9c.2-1.2-.7-2.4-1.9-2.5-.5,0-1,0-1.4.3-.6.3-1,.9-1.1,1.7l-.9,7.3-18-18.6,1.4-11.1c.2-1.2-.7-2.4-1.9-2.5-.5,0-1,0-1.4.3-.6.3-1,.9-1.1,1.7l-1,7.5-24.3-25.2c33.5,3.2,59.8,30.5,61.9,64h0ZM350.2,299.6l-16-4.6-4.2-10.1c-.5-1.1-1.8-1.7-2.9-1.2-.5.2-.8.5-1.1.9-.3.6-.4,1.3,0,2l2.8,6.8-24.9-7.1-4.3-10.3c-.5-1.1-1.8-1.7-2.9-1.2-.5.2-.8.5-1.1.9-.3.6-.4,1.3,0,2l2.9,7-33.7-9.6c30.6-14,67.1-3.5,85.6,24.5h-.2ZM333.3,415.3l-16.1,4-8.7-6.6c-1-.8-2.4-.6-3.1.4-.3.4-.5.9-.5,1.4s.3,1.3.9,1.8l5.8,4.5-25.1,6.3-8.9-6.8c-1-.8-2.4-.6-3.1.4-.3.4-.5.9-.5,1.4s.3,1.3.9,1.8l6,4.6-34,8.5c19.5-27.4,56.3-36.6,86.4-21.6h0ZM376.5,523.9l-11.9,11.6-10.9-1.4c-1.2-.2-2.4.7-2.5,1.9,0,.5,0,1,.3,1.4.3.6.9,1,1.7,1.1l7.3.9-18.6,18-11.1-1.4c-1.2-.2-2.4.7-2.5,1.9,0,.5,0,1,.3,1.4.3.6.9,1,1.7,1.1l7.5,1-25.2,24.3c3.2-33.5,30.5-59.8,64-61.9h-.1ZM468.2,596.3l-4.6,16-10.1,4.2c-1.1.5-1.7,1.8-1.2,2.9.2.5.5.8.9,1.1.6.3,1.3.4,2,0l6.8-2.8-7.1,24.9-10.3,4.3c-1.1.5-1.7,1.8-1.2,2.9.2.5.5.8.9,1.1.6.3,1.3.4,2,0l7-2.9-9.6,33.7c-14-30.6-3.5-67.1,24.5-85.6h0v.2ZM509.6,699.6l8.5-34,4.6,6c.4.6,1.1.9,1.8.9s1-.2,1.4-.5c1-.8,1.2-2.2.4-3.1l-6.8-8.9,6.3-25.1,4.5,5.8c.4.6,1.1.9,1.8.9s1-.2,1.4-.5c1-.8,1.2-2.2.4-3.1l-6.6-8.7,4-16.1c14.9,30.1,5.8,66.9-21.6,86.4h-.1ZM671.4,682l-9.6-33.7,7,2.9c.7.3,1.4.2,2,0s.8-.6.9-1.1c.5-1.1,0-2.5-1.2-2.9l-10.3-4.3-7.1-24.9,6.8,2.8c.7.3,1.4.2,2,0s.8-.6.9-1.1c.5-1.1,0-2.5-1.2-2.9l-10.1-4.2-4.6-16c28,18.6,38.4,55,24.5,85.6h0v-.2ZM802.7,585.8l-25.2-24.3,7.5-1c.7,0,1.3-.5,1.7-1.1.2-.4.3-.9.3-1.4-.2-1.2-1.3-2.1-2.5-1.9l-11.1,1.4-18.6-18,7.3-.9c.7,0,1.3-.5,1.7-1.1.2-.4.3-.9.3-1.4-.2-1.2-1.3-2.1-2.5-1.9l-10.9,1.4-11.9-11.6c33.5,2.1,60.8,28.4,64,61.9h-.1ZM868.3,436.9l-34-8.5,6-4.6c.6-.4.9-1.1.9-1.8s0-1-.5-1.4c-.8-1-2.2-1.2-3.1-.4l-8.9,6.8-25.1-6.3,5.8-4.5c.6-.4.9-1.1.9-1.8s0-1-.5-1.4c-.8-1-2.2-1.2-3.1-.4l-8.7,6.6-16.1-4c30.1-14.9,66.9-5.8,86.4,21.6h0ZM850.6,275.1l-33.7,9.6,2.9-7c.3-.7.2-1.4,0-2-.2-.4-.6-.8-1.1-.9-1.1-.5-2.5,0-2.9,1.2l-4.3,10.3-24.9,7.1,2.8-6.8c.3-.7.2-1.4,0-2-.2-.4-.6-.8-1.1-.9-1.1-.5-2.5,0-2.9,1.2l-4.2,10.1-16,4.6c18.6-28,55-38.4,85.6-24.5h-.2ZM754.5,143.8l-24.3,25.2-1-7.5c0-.7-.5-1.3-1.1-1.7-.4-.2-.9-.3-1.4-.3-1.2.2-2.1,1.3-1.9,2.5l1.4,11.1-18,18.6-.9-7.3c0-.7-.5-1.3-1.1-1.7-.4-.2-.9-.3-1.4-.3-1.2.2-2.1,1.3-1.9,2.5l1.4,10.9-11.6,11.9c2.1-33.5,28.4-60.8,61.9-64h0ZM605.5,78.2l-8.5,34-4.6-6c-.4-.6-1.1-.9-1.8-.9s-1,.2-1.4.5c-1,.8-1.2,2.2-.4,3.1l6.8,8.9-6.3,25.1-4.5-5.8c-.4-.6-1.1-.9-1.8-.9s-1,.2-1.4.5c-1,.8-1.2,2.2-.4,3.1l6.6,8.7-4,16.1c-14.9-30.1-5.8-66.9,21.6-86.4h.1ZM443.8,95.9l9.6,33.7-7-2.9c-.7-.3-1.4-.2-2,.1-.4.2-.8.6-.9,1.1-.5,1.1,0,2.5,1.2,2.9l10.3,4.3,7.1,24.9-6.8-2.8c-.7-.3-1.4-.2-2,.1-.4.2-.8.6-.9,1.1-.5,1.1,0,2.5,1.2,2.9l10.1,4.2,4.6,16c-28-18.6-38.4-55-24.5-85.6h0ZM312.5,192l25.2,24.3-7.5,1c-.7,0-1.3.5-1.7,1.1-.2.4-.3.9-.3,1.4.2,1.2,1.3,2.1,2.5,1.9l11.1-1.4,18.6,18-7.3.9c-.7,0-1.3.5-1.7,1.1-.2.4-.3.9-.3,1.4.2,1.2,1.3,2.1,2.5,1.9l10.9-1.4,11.9,11.6c-33.5-2.1-60.8-28.4-64-61.9h.1ZM246.9,341l34,8.5-6,4.6c-.6.4-.9,1.1-.9,1.8s0,1,.5,1.4c.8,1,2.2,1.2,3.1.4l8.9-6.8,25.1,6.3-5.8,4.5c-.6.4-.9,1.1-.9,1.8s0,1,.5,1.4c.8,1,2.2,1.2,3.1.4l8.7-6.6,16.1,4c-30.1,14.9-66.9,5.8-86.4-21.6h0ZM264.5,502.7l33.7-9.6-2.9,7c-.3.7-.2,1.4,0,2s.6.8,1.1.9c1.1.5,2.5,0,2.9-1.2l4.3-10.3,24.9-7.1-2.8,6.8c-.3.7-.2,1.4,0,2s.6.8,1.1.9c1.1.5,2.5,0,2.9-1.2l4.2-10.1,16-4.6c-18.6,28-55,38.4-85.6,24.5h.2ZM360.7,634l24.3-25.2,1,7.5c0,.7.5,1.3,1.1,1.7.4.2.9.3,1.4.3,1.2-.2,2.1-1.3,1.9-2.5l-1.4-11.1,18-18.6.9,7.3c0,.7.5,1.3,1.1,1.7.4.2.9.3,1.4.3,1.2-.2,2.1-1.3,1.9-2.5l-1.4-10.9,11.6-11.9c-2.1,33.5-28.4,60.8-61.9,64h0ZM614.7,651.2c3.8,15.8,2,32-5,46.4l-5.1-20.2,5.6,3.8c.4.3.8.4,1.3.4s1.4-.3,1.9-1c.7-1,.4-2.4-.6-3.1l-9.8-6.6-4.5-18.2,6,3c.3.2.7.2,1,.2.8,0,1.6-.5,2-1.2.6-1.1,0-2.5-1-3l-9.4-4.7-8.8-35.2c13.3,9.5,22.6,23.4,26.5,39.4h0ZM738.2,587.5c11.2,11.7,17.8,26.7,18.9,42.7l-14.5-15,6.7.5c.5,0,.9,0,1.3-.3.6-.4,1.1-1,1.1-1.8,0-1.2-.8-2.3-2.1-2.4l-11.8-.9-13-13.5,6.7-.4c.4,0,.7,0,1-.3.7-.4,1.2-1.2,1.1-2.1,0-1.2-1.1-2.2-2.4-2.1l-10.5.7-25.2-26.1c16.3,1.6,31.2,8.9,42.6,20.9h.1ZM813.3,470.6c15.6,4.6,28.7,14.2,37.7,27.6l-20-5.7,6.1-2.9c.4-.2.7-.5,1-.9.4-.6.4-1.4,0-2.1-.5-1.1-1.9-1.6-3-1l-10.6,5.1-18-5.1,5.6-3.7c.3-.2.5-.5.7-.7.4-.7.4-1.6,0-2.4-.7-1-2.1-1.3-3.1-.6l-8.8,5.8-34.9-10c14.9-6.7,31.5-7.9,47.4-3.3h0ZM819.9,331.8c15.8-3.8,32-2,46.4,5l-20.2,5.1,3.8-5.6c.3-.4.4-.8.4-1.3s-.3-1.4-1-1.9c-1-.7-2.4-.4-3.1.6l-6.6,9.8-18.2,4.5,3-6c.2-.3.2-.7.2-1,0-.8-.5-1.6-1.2-2-1.1-.6-2.5,0-3,1l-4.7,9.4-35.2,8.8c9.5-13.3,23.4-22.6,39.4-26.5h0ZM756.2,208.3c11.7-11.2,26.7-17.8,42.7-18.9l-15,14.5.5-6.7c0-.5,0-.9-.3-1.3-.4-.6-1-1.1-1.8-1.1-1.2,0-2.3.8-2.4,2.1l-.9,11.8-13.5,13-.4-6.7c0-.4,0-.7-.3-1-.4-.7-1.2-1.2-2.1-1.1-1.2,0-2.2,1.1-2.1,2.4l.7,10.5-26.1,25.2c1.6-16.3,8.9-31.2,20.9-42.6h.1ZM639.3,133.2c4.6-15.6,14.2-28.7,27.6-37.7l-5.7,20-2.9-6.1c-.2-.4-.5-.7-.9-1-.6-.4-1.4-.4-2.1,0-1.1.5-1.6,1.9-1,3l5.1,10.6-5.1,18-3.7-5.6c-.2-.3-.5-.5-.7-.7-.7-.4-1.6-.4-2.4,0-1,.7-1.3,2.1-.6,3.1l5.8,8.8-10,34.9c-6.7-14.9-7.9-31.5-3.3-47.4h-.1ZM500.5,126.6c-3.8-15.8-2-32,5-46.4l5.1,20.2-5.6-3.8c-.4-.3-.8-.4-1.3-.4s-1.4.3-1.9,1c-.7,1-.4,2.4.6,3.1l9.8,6.6,4.5,18.2-6-3c-.3-.2-.7-.2-1-.2-.8,0-1.6.5-2,1.2-.6,1.1,0,2.5,1,3l9.4,4.7,8.8,35.2c-13.3-9.5-22.6-23.4-26.5-39.4h0ZM377,190.3c-11.2-11.7-17.8-26.7-18.9-42.7l14.5,15-6.7-.5c-.5,0-.9,0-1.3.3-.6.4-1.1,1-1.1,1.8,0,1.2.8,2.3,2.1,2.4l11.8.9,13,13.5-6.7.4c-.4,0-.7.1-1,.3-.7.4-1.2,1.2-1.1,2.1,0,1.2,1.1,2.2,2.4,2.1l10.5-.7,25.2,26.1c-16.3-1.6-31.2-8.9-42.6-20.9h-.1ZM301.9,307.2c-15.6-4.6-28.7-14.2-37.7-27.6l20,5.7-6.1,2.9c-.4.2-.7.5-1,.9-.4.6-.4,1.4,0,2.1.5,1.1,1.9,1.6,3,1l10.6-5.1,18,5.1-5.6,3.7c-.3.2-.5.5-.7.7-.4.7-.4,1.6,0,2.4.7,1,2.1,1.3,3.1.6l8.8-5.8,34.9,10c-14.9,6.7-31.5,7.9-47.4,3.3h.1ZM295.3,446c-15.8,3.8-32,2-46.4-5l20.2-5.1-3.8,5.6c-.3.4-.4.8-.4,1.3s.3,1.4,1,1.9c1,.7,2.4.4,3.1-.6l6.6-9.8,18.2-4.5-3,6c-.2.3-.2.7-.2,1,0,.8.5,1.6,1.2,2,1.1.6,2.5,0,3-1l4.7-9.4,35.2-8.8c-9.5,13.3-23.4,22.6-39.4,26.5h0ZM359,569.5c-11.7,11.2-26.7,17.8-42.7,18.9l15-14.5-.5,6.7c0,.5,0,.9.3,1.3.4.6,1,1.1,1.8,1.1,1.2,0,2.3-.8,2.4-2.1l.9-11.8,13.5-13,.4,6.7c0,.4,0,.7.3,1,.4.7,1.2,1.2,2.1,1.1,1.2,0,2.2-1.1,2.1-2.4l-.7-10.5,26.1-25.2c-1.6,16.3-8.9,31.2-20.9,42.6h0ZM475.9,644.6c-4.6,15.6-14.2,28.7-27.6,37.7l5.7-20,2.9,6.1c.2.4.5.7.9,1,.6.4,1.4.4,2.1,0,1.1-.5,1.6-1.9,1-3l-5.1-10.6,5.1-18,3.7,5.6c.2.3.5.5.7.7.7.4,1.6.4,2.4,0,1-.7,1.3-2.1.6-3.1l-5.8-8.8,10-34.9c6.7,14.9,7.9,31.5,3.3,47.4h.1ZM527,611.8l-8.8,35.2-9.4,4.7c-1.1.6-1.6,1.9-1,3,.4.8,1.2,1.2,2,1.2s.7,0,1-.2l6-3-4.5,18.2-9.8,6.6c-1,.7-1.3,2.1-.6,3.1.4.6,1.1,1,1.9,1s.9,0,1.3-.4l5.6-3.8-5.1,20.2c-7.1-14.4-8.9-30.6-5-46.4,3.9-16,13.2-29.9,26.5-39.4h0ZM642.5,597.3l10,34.9-5.8,8.8c-.7,1-.4,2.4.6,3.1.7.5,1.7.5,2.4,0,.3-.2.5-.4.7-.7l3.7-5.6,5.1,18-5.1,10.6c-.5,1.1,0,2.5,1,3,.7.3,1.5.3,2.1,0s.7-.5.9-1l2.9-6.1,5.7,20c-13.3-8.9-23-22.1-27.6-37.7-4.6-15.9-3.5-32.5,3.3-47.4h.1ZM735.3,526.9l26.1,25.2-.7,10.5c0,1.2.9,2.3,2.1,2.4.9,0,1.7-.4,2.1-1.1.2-.3.3-.6.3-1l.4-6.7,13.5,13,.9,11.8c0,1.2,1.2,2.2,2.4,2.1.8,0,1.4-.5,1.8-1.1.2-.4.3-.8.3-1.3l-.5-6.7,15,14.5c-16-1.1-31-7.6-42.7-18.9-11.9-11.4-19.2-26.4-20.9-42.6h-.1ZM780.5,419.5l35.2,8.8,4.7,9.4c.6,1.1,1.9,1.6,3,1,.8-.4,1.2-1.2,1.2-2s0-.7-.2-1l-3-6,18.2,4.5,6.6,9.8c.7,1,2.1,1.3,3.1.6.6-.4,1-1.1,1-1.9s0-.9-.4-1.3l-3.8-5.6,20.2,5.1c-14.4,7.1-30.6,8.9-46.4,5-16-3.9-29.9-13.2-39.4-26.5h0ZM765.9,304l34.9-10,8.8,5.8c1,.7,2.4.4,3.1-.6.5-.7.5-1.7,0-2.4-.2-.3-.4-.5-.7-.7l-5.6-3.7,18-5.1,10.6,5.1c1.1.5,2.5,0,3-1,.3-.7.3-1.5,0-2.1-.2-.4-.5-.7-1-.9l-6.1-2.9,20-5.7c-8.9,13.3-22.1,23-37.7,27.6-15.9,4.6-32.5,3.5-47.4-3.3h0ZM695.5,211.2l25.2-26.1,10.5.7c1.2,0,2.3-.9,2.4-2.1,0-.9-.4-1.7-1.1-2.1-.3-.2-.6-.3-1-.3l-6.7-.4,13-13.5,11.8-.9c1.2,0,2.2-1.2,2.1-2.4,0-.8-.5-1.4-1.1-1.8-.4-.2-.8-.3-1.3-.3l-6.7.5,14.5-15c-1.1,16-7.6,31-18.9,42.7-11.4,11.9-26.4,19.2-42.6,20.9h-.1ZM588.2,166l8.8-35.2,9.4-4.7c1.1-.6,1.6-1.9,1-3-.4-.8-1.2-1.2-2-1.2s-.7,0-1,.2l-6,3,4.5-18.2,9.8-6.6c1-.7,1.3-2.1.6-3.1-.4-.6-1.1-1-1.9-1s-.9.1-1.3.4l-5.6,3.8,5.1-20.2c7.1,14.4,8.9,30.6,5,46.4-3.9,16-13.2,29.9-26.5,39.4h0ZM472.6,180.6l-10-34.9,5.8-8.8c.7-1,.4-2.4-.6-3.1-.7-.5-1.7-.5-2.4,0-.3.2-.5.4-.7.7l-3.7,5.6-5.1-18,5.1-10.6c.5-1.1,0-2.5-1-3-.7-.3-1.5-.3-2.1,0s-.7.5-.9,1l-2.9,6.1-5.7-20c13.3,8.9,23,22.1,27.6,37.7,4.6,15.9,3.5,32.5-3.3,47.4h-.1ZM379.8,250.9l-26.1-25.2.7-10.5c0-1.2-.9-2.3-2.1-2.4-.9,0-1.7.4-2.1,1.1-.2.3-.3.6-.3,1l-.4,6.7-13.5-13-.9-11.8c0-1.2-1.2-2.2-2.4-2.1-.8,0-1.4.5-1.8,1.1-.2.4-.3.8-.3,1.3l.5,6.7-15-14.5c16,1.1,31,7.6,42.7,18.9,11.9,11.4,19.2,26.4,20.9,42.6h.1ZM334.7,358.3l-35.2-8.8-4.7-9.4c-.6-1.1-1.9-1.6-3-1-.8.4-1.2,1.2-1.2,2s0,.7.2,1l3,6-18.2-4.5-6.6-9.8c-.7-1-2.1-1.3-3.1-.6-.6.4-1,1.1-1,1.9s0,.9.4,1.3l3.8,5.6-20.2-5.1c14.4-7.1,30.6-8.9,46.4-5,16,3.9,29.9,13.2,39.4,26.5h0ZM349.2,473.8l-34.9,10-8.8-5.8c-1-.7-2.4-.4-3.1.6-.5.7-.5,1.7,0,2.4.2.3.4.5.7.7l5.6,3.7-18,5.1-10.6-5.1c-1.1-.5-2.5,0-3,1-.3.7-.3,1.5,0,2.1s.5.7,1,.9l6.1,2.9-20,5.7c8.9-13.3,22.1-23,37.7-27.6,15.9-4.6,32.5-3.5,47.4,3.3h0ZM419.6,566.6l-25.2,26.1-10.5-.7c-1.2,0-2.3.9-2.4,2.1,0,.9.4,1.7,1.1,2.1.3.2.6.3,1,.3l6.7.4-13,13.5-11.8.9c-1.2,0-2.2,1.2-2.1,2.4,0,.8.5,1.4,1.1,1.8.4.2.8.3,1.3.3l6.7-.5-14.5,15c1.1-16,7.6-31,18.9-42.7,11.4-11.9,26.4-19.2,42.6-20.9h.1ZM609,580.9h-102.9l-89.1-51.5-51.5-89.1v-102.9l51.5-89.1,89.1-51.5h102.9l89.1,51.5,51.5,89.1v102.9l-51.5,89.1-89.1,51.5ZM597,585.4c-9.7,4.6-18.5,12.9-25.8,24.3-5.5,8.7-10.6,20.6-13.6,31.5h0c-3-10.9-8.1-22.8-13.6-31.5-7.3-11.4-16.1-19.7-25.8-24.3h78.8ZM493.4,578.8c-10.7-.8-22.4,1.9-34.5,8.2-9.1,4.7-19.5,12.5-27.5,20.5h0c2.8-11,4.4-23.8,3.9-34.1-.6-13.5-4.1-25.1-10.2-33.9l68.2,39.4h0ZM407.1,521.3c-8.8-6-20.4-9.6-33.9-10.2-10.3-.5-23.1,1.1-34.1,3.9h0c7.9-8.1,15.7-18.4,20.5-27.5,6.2-12,9-23.8,8.2-34.5l39.4,68.2h0ZM361.1,428.3c-4.6-9.7-12.9-18.5-24.3-25.8-8.7-5.5-20.6-10.6-31.5-13.6h0c10.9-3,22.8-8.1,31.5-13.6,11.4-7.3,19.7-16.1,24.3-25.8v78.8h0ZM367.7,324.8c.8-10.7-1.9-22.4-8.2-34.5-4.7-9.1-12.5-19.5-20.5-27.5h0c11,2.8,23.8,4.4,34.1,3.9,13.5-.6,25.1-4.1,33.9-10.2l-39.4,68.2h0ZM425.2,238.4c6-8.8,9.6-20.4,10.2-33.9.5-10.3-1.1-23.1-3.9-34.1h0c8.1,7.9,18.4,15.7,27.5,20.5,12,6.2,23.8,9,34.5,8.2l-68.2,39.4h0ZM518.2,192.4c9.7-4.6,18.5-12.9,25.8-24.3,5.5-8.7,10.6-20.6,13.6-31.5h0c3,10.9,8.1,22.8,13.6,31.5,7.3,11.4,16.1,19.7,25.8,24.3h-78.8ZM621.7,199c10.7.8,22.4-1.9,34.5-8.2,9.1-4.7,19.5-12.5,27.5-20.5h0c-2.8,11-4.4,23.8-3.9,34.1.6,13.5,4.1,25.1,10.2,33.9l-68.2-39.4h0ZM708.1,256.5c8.8,6,20.4,9.6,33.9,10.2,10.3.5,23.1-1.1,34.1-3.9h0c-7.9,8.1-15.7,18.4-20.5,27.5-6.2,12-9,23.8-8.2,34.5l-39.4-68.2h0ZM754.1,349.5c4.6,9.7,12.9,18.5,24.3,25.8,8.7,5.5,20.6,10.6,31.5,13.6h0c-10.9,3-22.8,8.1-31.5,13.6-11.4,7.3-19.7,16.1-24.3,25.8v-78.8h0ZM747.5,453.1c-.8,10.7,1.9,22.4,8.2,34.5,4.7,9.1,12.5,19.5,20.5,27.5h0c-11-2.8-23.8-4.4-34.1-3.9-13.5.6-25.1,4.1-33.9,10.2l39.4-68.2h0ZM690,539.4c-6,8.8-9.6,20.4-10.2,33.9-.5,10.3,1.1,23.1,3.9,34.1h0c-8.1-7.9-18.4-15.7-27.5-20.5-12-6.2-23.8-9-34.5-8.2l68.2-39.4h0ZM557.6,678.5c0-.3,1.7-.5,1.7-.8,0-30.5,7.9-57.6,22.2-74.3l.8,3.4c-20.1,34.3-9,78.7,25.1,99.5.4.2.8.3,1.2.3h.5c.6,0,1.1-.5,1.4-1,0,0,.2-.3.2-.4,0,0,0-.2.2-.3,9.8-16.5,12.7-35.9,8.1-54.6-4.6-18.8-16.1-34.6-32.5-44.8l-1.2-4.9c0-.3-.2-.6-.4-.8,7.5-7.5,16.1-12.3,25.4-13.7,8.7-3.5,18.6-3.6,28.8-.9v.9l1.4,4.9c-9.1,17-11.1,36.5-5.7,55s17.6,33.8,34.4,43.2c0,0,.2,0,.3.2,0,0,.3.2.4.2.5.3,1.1.4,1.7.2.2,0,.3,0,.5-.2.4-.2.6-.5.8-.9,19.2-35,6.6-79-28-98.7l-1-3.3c20.8,7.3,41.2,26.9,56.4,53.3,0,.3,1.6-.3,1.8-.2,0-.3,1.2-1.2,1.1-1.5-15.2-26.4-22-53.8-17.9-75.5l2.4,2.5c-.3,39.8,31.6,72.7,71.5,73.6.4,0,.8,0,1.2-.3.2,0,.3-.2.4-.3.4-.4.7-1,.7-1.6v-.8c.2-19.2-6.9-37.4-20.2-51.4-13.3-14-31.3-21.9-50.5-22.6l-3.5-3.6c-.2-.2-.5-.4-.7-.5,2.8-10.2,7.8-18.7,15.2-24.5,5.8-7.4,14.3-12.4,24.5-15.2,0,.3.3.5.5.7l3.6,3.5c.6,19.3,8.6,37.2,22.6,50.5,13.9,13.3,32.1,20.5,51.4,20.2h.8c.6,0,1.2-.3,1.6-.7s.2-.3.3-.4c.2-.4.3-.8.3-1.2-.9-39.9-33.8-71.7-73.6-71.5l-2.5-2.4c21.7-4.1,49.1,2.7,75.5,17.9.3,0,1.2-1.1,1.5-1.1-.2-.2.4-1.7.2-1.8-26.4-15.2-45.9-35.6-53.3-56.4l3.3,1c19.7,34.6,63.7,47.2,98.7,28,.4-.2.7-.5.9-.8,0-.2.2-.3.2-.5.2-.6,0-1.2-.2-1.7,0,0-.2-.3-.2-.4s0-.2-.2-.3c-9.4-16.8-24.7-29-43.2-34.4s-38-3.4-55,5.7l-4.9-1.4h-.9c-2.7-10.2-2.6-20.1.9-28.8,1.3-9.3,6.2-17.9,13.7-25.4.2.2.5.3.8.4l4.9,1.2c10.2,16.4,26,27.9,44.8,32.5,18.7,4.6,38.1,1.7,54.6-8.1,0,0,.2,0,.3-.2,0,0,.3-.2.4-.2.5-.3.9-.8,1-1.4v-.5c0-.4,0-.8-.3-1.2-20.7-34.1-65.1-45.2-99.5-25.1l-3.4-.8c16.8-14.4,43.9-22.2,74.3-22.2s.5-1.6.8-1.7c-.3,0-.5-1.7-.8-1.7-30.5,0-57.6-7.9-74.3-22.2l3.4-.8c34.3,20.1,78.7,9,99.5-25.1.2-.4.3-.8.3-1.2v-.5c0-.6-.5-1.1-1-1.4,0,0-.3-.2-.4-.2,0,0-.2,0-.3-.2-16.5-9.8-35.9-12.7-54.6-8.1-18.8,4.6-34.6,16.1-44.8,32.5l-4.9,1.2c-.3,0-.6.2-.8.4-7.5-7.5-12.3-16.1-13.7-25.4-3.5-8.7-3.6-18.6-.9-28.8h.9l4.9-1.4c17,9.1,36.5,11.1,55,5.7,18.5-5.4,33.8-17.6,43.2-34.4,0,0,0-.2.2-.3,0,0,.2-.3.2-.4.3-.5.4-1.1.2-1.7,0-.2,0-.3-.2-.5-.2-.4-.5-.6-.9-.8-35-19.2-79-6.6-98.7,28l-3.3,1c7.3-20.8,26.9-41.2,53.3-56.4.3-.1-.3-1.6-.2-1.8-.3,0-1.2-1.2-1.5-1.1-26.4,15.2-53.8,22-75.5,17.9l2.5-2.4c39.8.3,72.7-31.6,73.6-71.5,0-.4,0-.8-.3-1.2,0-.2-.2-.3-.3-.4-.4-.4-1-.7-1.6-.7h-.8c-19.2-.2-37.4,6.9-51.4,20.2-14,13.3-21.9,31.3-22.6,50.5l-3.6,3.5c-.2.2-.4.5-.5.7-10.2-2.8-18.7-7.8-24.5-15.2-7.4-5.8-12.4-14.3-15.2-24.5.3-.1.5-.3.7-.5l3.5-3.6c19.3-.6,37.2-8.6,50.5-22.6,13.3-13.9,20.5-32.1,20.2-51.4v-.8c0-.6-.3-1.2-.7-1.6,0-.1-.3-.2-.4-.3-.4-.2-.8-.3-1.2-.3-39.9.9-71.7,33.8-71.5,73.6l-2.4,2.5c-4.1-21.7,2.7-49.1,17.9-75.5,0-.3-1.1-1.2-1.1-1.5-.2.2-1.7-.4-1.8-.2-15.2,26.4-35.6,45.9-56.4,53.3l1-3.3c34.6-19.7,47.2-63.7,28-98.7-.2-.4-.5-.7-.8-.9-.2,0-.3-.2-.5-.2-.6-.2-1.2-.1-1.7.2,0,0-.3.2-.4.2s-.2.1-.3.2c-16.8,9.4-29,24.7-34.4,43.2s-3.4,38,5.7,55l-1.4,4.9v.9c-10.2,2.7-20.1,2.6-28.8-.9-9.3-1.3-17.9-6.2-25.4-13.7.2-.2.3-.5.4-.8l1.2-4.9c16.4-10.2,27.9-26,32.5-44.8,4.6-18.7,1.7-38.1-8.1-54.6,0-.1,0-.2-.2-.3,0-.1-.2-.3-.2-.4-.3-.5-.8-.9-1.4-1h-.5c-.4,0-.8.1-1.2.3-34.1,20.7-45.2,65.1-25.1,99.5l-.8,3.4c-14.4-16.8-22.2-43.9-22.2-74.3s-1.6-.5-1.7-.8c0,.3-1.7.5-1.7.8,0,30.5-7.9,57.6-22.2,74.3l-.8-3.4c20.1-34.3,9-78.7-25.1-99.5-.4-.2-.8-.3-1.2-.3h-.5c-.6.1-1.1.5-1.4,1,0,.1-.2.3-.2.4,0,0,0,.2-.2.3-9.8,16.5-12.7,35.9-8.1,54.6,4.6,18.8,16.1,34.6,32.5,44.8l1.2,4.9c0,.3.2.6.4.8-7.5,7.5-16.1,12.3-25.4,13.7-8.7,3.5-18.6,3.6-28.8.9v-.9l-1.4-4.9c9.1-17,11.1-36.5,5.7-55s-17.6-33.8-34.4-43.2c0,0-.2-.1-.3-.2,0,0-.3-.2-.4-.2-.5-.3-1.1-.4-1.7-.2-.2,0-.3.1-.5.2-.4.2-.6.5-.8.9-19.2,35-6.6,79,28,98.7l1,3.3c-20.8-7.3-41.2-26.9-56.4-53.3,0-.3-1.6.3-1.8.2,0,.3-1.2,1.2-1.1,1.5,15.2,26.4,22,53.8,17.9,75.5l-2.4-2.5c.3-39.8-31.6-72.7-71.5-73.6-.4,0-.8,0-1.2.3-.2,0-.3.2-.4.3-.4.4-.7,1-.7,1.6v.8c-.2,19.2,6.9,37.4,20.2,51.4,13.3,14,31.3,21.9,50.5,22.6l3.5,3.6c.2.2.5.4.7.5-2.8,10.2-7.8,18.7-15.2,24.5-5.8,7.4-14.3,12.4-24.5,15.2,0-.3-.3-.5-.5-.7l-3.6-3.5c-.6-19.3-8.6-37.2-22.6-50.5-13.9-13.3-32.1-20.5-51.4-20.2h-.8c-.6,0-1.2.3-1.6.7,0,.1-.2.3-.3.4-.2.4-.3.8-.3,1.2.9,39.9,33.8,71.7,73.6,71.5l2.5,2.4c-21.7,4.1-49.1-2.7-75.5-17.9-.3-.1-1.2,1.1-1.5,1.1.2.2-.4,1.7-.2,1.8,26.4,15.2,45.9,35.6,53.3,56.4l-3.3-1c-19.7-34.6-63.7-47.2-98.7-28-.4.2-.7.5-.9.8,0,.2-.2.3-.2.5-.2.6,0,1.2.2,1.7,0,0,.2.3.2.4s0,.2.2.3c9.4,16.8,24.7,29,43.2,34.4s38,3.4,55-5.7l4.9,1.4h.9c2.7,10.2,2.6,20.1-.9,28.8-1.3,9.3-6.2,17.9-13.7,25.4-.2-.2-.5-.3-.8-.4l-4.9-1.2c-10.2-16.4-26-27.9-44.8-32.5-18.7-4.6-38.1-1.7-54.6,8.1,0,0-.2,0-.3.2,0,0-.3.2-.4.2-.5.3-.9.8-1,1.4v.5c0,.4,0,.8.3,1.2,20.7,34.1,65.1,45.2,99.5,25.1l3.4.8c-16.8,14.4-43.9,22.2-74.3,22.2s-.5,1.6-.8,1.7c.3,0,.5,1.7.8,1.7,30.5,0,57.6,7.9,74.3,22.2l-3.4.8c-34.3-20.1-78.7-9-99.5,25.1-.2.4-.3.8-.3,1.2v.5c0,.6.5,1.1,1,1.4,0,0,.3.2.4.2,0,0,.2,0,.3.2,16.5,9.8,35.9,12.7,54.6,8.1,18.8-4.6,34.6-16.1,44.8-32.5l4.9-1.2c.3,0,.6-.2.8-.4,7.5,7.5,12.3,16.1,13.7,25.4,3.5,8.7,3.6,18.6.9,28.8h-.9l-4.9,1.4c-17-9.1-36.5-11.1-55-5.7-18.5,5.4-33.8,17.6-43.2,34.4,0,0,0,.2-.2.3,0,0-.2.3-.2.4-.3.5-.4,1.1-.2,1.7,0,.2,0,.3.2.5.2.4.5.6.9.8,35,19.2,79,6.6,98.7-28l3.3-1c-7.3,20.8-26.9,41.2-53.3,56.4-.3,0,.3,1.6.2,1.8.3,0,1.2,1.2,1.5,1.1,26.4-15.2,53.8-22,75.5-17.9l-2.5,2.4c-39.8-.3-72.7,31.6-73.6,71.5,0,.4,0,.8.3,1.2,0,.2.2.3.3.4.4.4,1,.7,1.6.7h.8c19.2.2,37.4-6.9,51.4-20.2s21.9-31.3,22.6-50.5l3.6-3.5c.2-.2.4-.5.5-.7,10.2,2.8,18.7,7.8,24.5,15.2,7.4,5.8,12.4,14.3,15.2,24.5-.3,0-.5.3-.7.5l-3.5,3.6c-19.3.6-37.2,8.6-50.5,22.6-13.3,13.9-20.5,32.1-20.2,51.4v.8c0,.6.3,1.2.7,1.6,0,0,.3.2.4.3.4.2.8.3,1.2.3,39.9-.9,71.7-33.8,71.5-73.6l2.4-2.5c4.1,21.7-2.7,49.1-17.9,75.5,0,.3,1.1,1.2,1.1,1.5.2-.2,1.7.4,1.8.2,15.2-26.4,35.6-45.9,56.4-53.3l-1,3.3c-34.6,19.7-47.2,63.7-28,98.7.2.4.5.7.8.9.2,0,.3.2.5.2.6.2,1.2,0,1.7-.2,0,0,.3-.2.4-.2s.2,0,.3-.2c16.8-9.4,29-24.7,34.4-43.2s3.4-38-5.7-55l1.4-4.9v-.9c10.2-2.7,20.1-2.6,28.8.9,9.3,1.3,17.9,6.2,25.4,13.7-.2.2-.3.5-.4.8l-1.2,4.9c-16.4,10.2-27.9,26-32.5,44.8-4.6,18.7-1.7,38.1,8.1,54.6,0,0,0,.2.2.3,0,0,.2.3.2.4.3.5.8.9,1.4,1h.5c.4,0,.8,0,1.2-.3,34.1-20.7,45.2-65.1,25.1-99.5l.8-3.4c14.4,16.8,22.2,43.9,22.2,74.3s1.6.5,1.7.8h0Z"/>
        <path class="cls-5" d="M630.7,718.5c-5.2-1.4-10.5,1.7-11.9,6.9s1.7,10.5,6.9,11.9c.8.2,1.7.3,2.5.3,4.3,0,8.2-2.9,9.4-7.2.7-2.5.3-5.1-1-7.4-1.3-2.3-3.4-3.9-5.9-4.5ZM633.2,729.3h0c-.7,2.8-3.6,4.5-6.4,3.7-2.8-.7-4.5-3.6-3.7-6.4.6-2.3,2.8-3.9,5.1-3.9s.9,0,1.4.2c1.4.4,2.5,1.2,3.2,2.4s.9,2.6.5,4h0Z"/>
        <path class="cls-5" d="M785.7,637.8c-5.2,1.4-8.3,6.7-6.9,11.9s6.7,8.3,11.9,6.9c.8-.2,1.6-.6,2.4-1,3.7-2.2,5.7-6.6,4.5-11-.7-2.5-2.3-4.6-4.5-5.9-2.3-1.3-4.9-1.6-7.4-1h0ZM793.3,645.8h0c.7,2.8-.9,5.7-3.7,6.4-2.8.7-5.7-.9-6.4-3.7-.6-2.3.4-4.7,2.4-5.9.4-.2.8-.4,1.3-.5,1.4-.4,2.8-.2,4,.5s2.1,1.8,2.4,3.2h0Z"/>
        <path class="cls-5" d="M879.5,490.4c-3.8,3.8-3.8,10,0,13.8s10,3.8,13.8,0c.6-.6,1.1-1.3,1.5-2,2.2-3.7,1.6-8.6-1.5-11.8-1.8-1.8-4.3-2.9-6.9-2.9s-5,1-6.9,2.9ZM890.1,493.6h0c2,2,2,5.4,0,7.4s-5.4,2-7.4,0c-1.7-1.7-2-4.3-.8-6.3.2-.4.5-.8.8-1.1,1-1,2.3-1.5,3.7-1.5s2.7.5,3.7,1.5h0Z"/>
        <path class="cls-5" d="M887.1,315.8c-1.4,5.2,1.7,10.5,6.9,11.9,5.2,1.4,10.5-1.7,11.9-6.9.2-.8.3-1.7.3-2.5,0-4.3-2.9-8.2-7.2-9.4-2.5-.7-5.1-.3-7.4,1s-3.9,3.4-4.5,5.9h0ZM897.9,313.3h0c2.8.7,4.5,3.6,3.7,6.4-.7,2.8-3.6,4.5-6.4,3.7-2.3-.6-3.9-2.8-3.9-5.1s0-.9.2-1.4c.4-1.4,1.2-2.5,2.4-3.2,1.2-.7,2.6-.9,4-.5h0Z"/>
        <path class="cls-5" d="M806.4,160.8c1.4,5.2,6.7,8.3,11.9,6.9,5.2-1.4,8.3-6.7,6.9-11.9-.2-.8-.6-1.6-1-2.4-2.2-3.7-6.6-5.7-11-4.5-2.5.7-4.6,2.3-5.9,4.5-1.3,2.3-1.6,4.9-1,7.4h0ZM814.5,153.2h0c2.8-.7,5.7.9,6.4,3.7.7,2.8-.9,5.7-3.7,6.4-2.3.6-4.7-.4-5.9-2.4-.2-.4-.4-.8-.5-1.3-.4-1.4-.2-2.8.5-4s1.8-2.1,3.2-2.4h0Z"/>
        <path class="cls-5" d="M659.1,67c3.8,3.8,10,3.8,13.8,0s3.8-10,0-13.8c-.6-.6-1.3-1.1-2-1.5-3.7-2.2-8.6-1.6-11.8,1.5-1.8,1.8-2.9,4.3-2.9,6.9s1,5,2.9,6.9ZM662.2,56.4h0c2-2,5.4-2,7.4,0s2,5.4,0,7.4c-1.7,1.7-4.3,2-6.3.8-.4-.2-.8-.5-1.1-.8-1-1-1.5-2.3-1.5-3.7s.5-2.7,1.5-3.7h0Z"/>
        <path class="cls-5" d="M484.5,59.3c5.2,1.4,10.5-1.7,11.9-6.9,1.4-5.2-1.7-10.5-6.9-11.9-.8-.2-1.7-.3-2.5-.3-4.3,0-8.2,2.9-9.4,7.2-.7,2.5-.3,5.1,1,7.4s3.4,3.9,5.9,4.5h0ZM481.9,48.6h0c.7-2.8,3.6-4.5,6.4-3.7,2.8.7,4.5,3.6,3.7,6.4-.6,2.3-2.8,3.9-5.1,3.9s-.9,0-1.4-.2c-1.4-.4-2.5-1.2-3.2-2.4-.7-1.2-.9-2.6-.5-4h0Z"/>
        <path class="cls-5" d="M329.5,140c5.2-1.4,8.3-6.7,6.9-11.9-1.4-5.2-6.7-8.3-11.9-6.9-.8.2-1.6.6-2.4,1-3.7,2.2-5.7,6.6-4.5,11,.7,2.5,2.3,4.6,4.5,5.9,2.3,1.3,4.9,1.6,7.4,1h0ZM321.9,132h0c-.7-2.8.9-5.7,3.7-6.4,2.8-.7,5.7.9,6.4,3.7.6,2.3-.4,4.7-2.4,5.9-.4.2-.8.4-1.3.5-1.4.4-2.8.2-4-.5s-2.1-1.8-2.4-3.2Z"/>
        <path class="cls-5" d="M235.6,287.4c3.8-3.8,3.8-10,0-13.8s-10-3.8-13.8,0-1.1,1.3-1.5,2c-2.2,3.7-1.6,8.6,1.5,11.8,1.8,1.8,4.3,2.9,6.9,2.9s5-1,6.9-2.9h0ZM225,284.3h0c-2-2-2-5.4,0-7.4s5.4-2,7.4,0,2,4.3.8,6.3c-.2.4-.5.8-.8,1.1-1,1-2.3,1.5-3.7,1.5s-2.7-.5-3.7-1.5h0Z"/>
        <path class="cls-5" d="M228,462c1.4-5.2-1.7-10.5-6.9-11.9s-10.5,1.7-11.9,6.9c-.2.8-.3,1.7-.3,2.5,0,4.3,2.9,8.2,7.2,9.4,2.5.7,5.1.3,7.4-1,2.3-1.3,3.9-3.4,4.5-5.9ZM217.2,464.6h0c-2.8-.7-4.5-3.6-3.7-6.4.7-2.8,3.6-4.5,6.4-3.7,2.3.6,3.9,2.8,3.9,5.1s0,.9-.2,1.4c-.4,1.4-1.2,2.5-2.4,3.2s-2.6.9-4,.5h0Z"/>
        <path class="cls-5" d="M308.7,617c-1.4-5.2-6.7-8.3-11.9-6.9-5.2,1.4-8.3,6.7-6.9,11.9.2.8.6,1.6,1,2.4,2.2,3.7,6.6,5.7,11,4.5,2.5-.7,4.6-2.3,5.9-4.5,1.3-2.3,1.6-4.9,1-7.4h0ZM300.7,624.6h0c-2.8.7-5.7-.9-6.4-3.7s.9-5.7,3.7-6.4c2.3-.6,4.7.4,5.9,2.4.2.4.4.8.5,1.3.4,1.4.2,2.8-.5,4s-1.8,2.1-3.2,2.4Z"/>
        <path class="cls-5" d="M456.1,710.9c-3.8-3.8-10-3.8-13.8,0s-3.8,10,0,13.8c.6.6,1.3,1.1,2,1.5,3.7,2.2,8.6,1.6,11.8-1.5,1.8-1.8,2.9-4.3,2.9-6.9s-1-5-2.9-6.9h0ZM452.9,721.5h0c-2,2-5.4,2-7.4,0s-2-5.4,0-7.4c1.7-1.7,4.3-2,6.3-.8.4.2.8.5,1.1.8,1,1,1.5,2.3,1.5,3.7s-.5,2.7-1.5,3.7Z"/>
        <path class="cls-5" d="M484.5,718.5c5.2-1.4,10.5,1.7,11.9,6.9s-1.7,10.5-6.9,11.9c-.8.2-1.7.3-2.5.3-4.3,0-8.2-2.9-9.4-7.2-.7-2.5-.3-5.1,1-7.4,1.3-2.3,3.4-3.9,5.9-4.5ZM481.9,729.3h0c.7,2.8,3.6,4.5,6.4,3.7,2.8-.7,4.5-3.6,3.7-6.4-.6-2.3-2.8-3.9-5.1-3.9s-.9,0-1.4.2c-1.4.4-2.5,1.2-3.2,2.4s-.9,2.6-.5,4h0Z"/>
        <path class="cls-5" d="M659.1,710.9c3.8-3.8,10-3.8,13.8,0s3.8,10,0,13.8c-.6.6-1.3,1.1-2,1.5-3.7,2.2-8.6,1.6-11.8-1.5-1.8-1.8-2.9-4.3-2.9-6.9s1-5,2.9-6.9h0ZM662.2,721.5h0c2,2,5.4,2,7.4,0s2-5.4,0-7.4c-1.7-1.7-4.3-2-6.3-.8-.4.2-.8.5-1.1.8-1,1-1.5,2.3-1.5,3.7s.5,2.7,1.5,3.7Z"/>
        <path class="cls-5" d="M806.4,617c1.4-5.2,6.7-8.3,11.9-6.9,5.2,1.4,8.3,6.7,6.9,11.9-.2.8-.6,1.6-1,2.4-2.2,3.7-6.6,5.7-11,4.5-2.5-.7-4.6-2.3-5.9-4.5-1.3-2.3-1.6-4.9-1-7.4h0ZM814.5,624.6h0c2.8.7,5.7-.9,6.4-3.7.7-2.8-.9-5.7-3.7-6.4-2.3-.6-4.7.4-5.9,2.4-.2.4-.4.8-.5,1.3-.4,1.4-.2,2.8.5,4s1.8,2.1,3.2,2.4Z"/>
        <path class="cls-5" d="M887.1,462c-1.4-5.2,1.7-10.5,6.9-11.9,5.2-1.4,10.5,1.7,11.9,6.9.2.8.3,1.7.3,2.5,0,4.3-2.9,8.2-7.2,9.4-2.5.7-5.1.3-7.4-1s-3.9-3.4-4.5-5.9h0ZM897.9,464.6h0c2.8-.7,4.5-3.6,3.7-6.4-.7-2.8-3.6-4.5-6.4-3.7-2.3.6-3.9,2.8-3.9,5.1s0,.9.2,1.4c.4,1.4,1.2,2.5,2.4,3.2,1.2.7,2.6.9,4,.5h0Z"/>
        <path class="cls-5" d="M879.5,287.4c-3.8-3.8-3.8-10,0-13.8s10-3.8,13.8,0c.6.6,1.1,1.3,1.5,2,2.2,3.7,1.6,8.6-1.5,11.8-1.8,1.8-4.3,2.9-6.9,2.9s-5-1-6.9-2.9ZM890.1,284.3h0c2-2,2-5.4,0-7.4s-5.4-2-7.4,0c-1.7,1.7-2,4.3-.8,6.3.2.4.5.8.8,1.1,1,1,2.3,1.5,3.7,1.5s2.7-.5,3.7-1.5h0Z"/>
        <path class="cls-5" d="M785.7,140c-5.2-1.4-8.3-6.7-6.9-11.9,1.4-5.2,6.7-8.3,11.9-6.9.8.2,1.6.6,2.4,1,3.7,2.2,5.7,6.6,4.5,11-.7,2.5-2.3,4.6-4.5,5.9-2.3,1.3-4.9,1.6-7.4,1h0ZM793.3,132h0c.7-2.8-.9-5.7-3.7-6.4s-5.7.9-6.4,3.7c-.6,2.3.4,4.7,2.4,5.9.4.2.8.4,1.3.5,1.4.4,2.8.2,4-.5s2.1-1.8,2.4-3.2h0Z"/>
        <path class="cls-5" d="M630.7,59.3c-5.2,1.4-10.5-1.7-11.9-6.9-1.4-5.2,1.7-10.5,6.9-11.9.8-.2,1.7-.3,2.5-.3,4.3,0,8.2,2.9,9.4,7.2.7,2.5.3,5.1-1,7.4s-3.4,3.9-5.9,4.5h0ZM633.2,48.6h0c-.7-2.8-3.6-4.5-6.4-3.7-2.8.7-4.5,3.6-3.7,6.4.6,2.3,2.8,3.9,5.1,3.9s.9,0,1.4-.2c1.4-.4,2.5-1.2,3.2-2.4.7-1.2.9-2.6.5-4h0Z"/>
        <path class="cls-5" d="M456.1,67c-3.8,3.8-10,3.8-13.8,0s-3.8-10,0-13.8c.6-.6,1.3-1.1,2-1.5,3.7-2.2,8.6-1.6,11.8,1.5,1.8,1.8,2.9,4.3,2.9,6.9s-1,5-2.9,6.9ZM452.9,56.4h0c-2-2-5.4-2-7.4,0s-2,5.4,0,7.4c1.7,1.7,4.3,2,6.3.8.4-.2.8-.5,1.1-.8,1-1,1.5-2.3,1.5-3.7s-.5-2.7-1.5-3.7h0Z"/>
        <path class="cls-5" d="M308.7,160.8c-1.4,5.2-6.7,8.3-11.9,6.9s-8.3-6.7-6.9-11.9c.2-.8.6-1.6,1-2.4,2.2-3.7,6.6-5.7,11-4.5,2.5.7,4.6,2.3,5.9,4.5,1.3,2.3,1.6,4.9,1,7.4h0ZM300.7,153.2h0c-2.8-.7-5.7.9-6.4,3.7-.7,2.8.9,5.7,3.7,6.4,2.3.6,4.7-.4,5.9-2.4.2-.4.4-.8.5-1.3.4-1.4.2-2.8-.5-4s-1.8-2.1-3.2-2.4h0Z"/>
        <path class="cls-5" d="M228,315.8c1.4,5.2-1.7,10.5-6.9,11.9s-10.5-1.7-11.9-6.9c-.2-.8-.3-1.7-.3-2.5,0-4.3,2.9-8.2,7.2-9.4,2.5-.7,5.1-.3,7.4,1s3.9,3.4,4.5,5.9ZM217.2,313.3h0c-2.8.7-4.5,3.6-3.7,6.4.7,2.8,3.6,4.5,6.4,3.7,2.3-.6,3.9-2.8,3.9-5.1s0-.9-.2-1.4c-.4-1.4-1.2-2.5-2.4-3.2s-2.6-.9-4-.5h0Z"/>
        <path class="cls-5" d="M235.6,490.4c3.8,3.8,3.8,10,0,13.8s-10,3.8-13.8,0-1.1-1.3-1.5-2c-2.2-3.7-1.6-8.6,1.5-11.8,1.8-1.8,4.3-2.9,6.9-2.9s5,1,6.9,2.9h0ZM225,493.6h0c-2,2-2,5.4,0,7.4s5.4,2,7.4,0,2-4.3.8-6.3c-.2-.4-.5-.8-.8-1.1-1-1-2.3-1.5-3.7-1.5s-2.7.5-3.7,1.5h0Z"/>
        <path class="cls-5" d="M329.5,637.8c5.2,1.4,8.3,6.7,6.9,11.9-1.4,5.2-6.7,8.3-11.9,6.9-.8-.2-1.6-.6-2.4-1-3.7-2.2-5.7-6.6-4.5-11,.7-2.5,2.3-4.6,4.5-5.9,2.3-1.3,4.9-1.6,7.4-1h0ZM321.9,645.8h0c-.7,2.8.9,5.7,3.7,6.4s5.7-.9,6.4-3.7c.6-2.3-.4-4.7-2.4-5.9-.4-.2-.8-.4-1.3-.5-1.4-.4-2.8-.2-4,.5s-2.1,1.8-2.4,3.2Z"/>
        <path class="cls-5" d="M557.3,565.3c-96.6,0-175.2-78.6-175.2-175.2s78.6-175.2,175.2-175.2,175.2,78.6,175.2,175.2-78.6,175.2-175.2,175.2ZM557.3,219.8c-93.9,0-170.3,76.4-170.3,170.3s76.4,170.3,170.3,170.3,170.3-76.4,170.3-170.3-76.4-170.3-170.3-170.3Z"/>
      </g>
      <g>
        <g>
          <path class="cls-3" d="M668.6,418.4h.5c.9,0,1.7-.6,1.9-1.5.3-1.1-.4-2.2-1.4-2.4-54.7-14.4-92.4-34.6-112.5-60.1.2-.2.3-.4.4-.6,15.5-34.8,14.5-60.2,10.9-75.4-3.9-16.7-11.6-24.9-11.9-25.3-.4-.4-1-.7-1.6-.6-.6,0-1.1.3-1.5.8-.3.4-27.5,38-12.9,79.5,13.4,38,56.5,66.8,128,85.6h0ZM554.5,350.8c-4.4-6.2-7.7-12.6-10.1-19.4-12-33.9,5.5-65.2,10.8-73.6,5.6,7.8,23.1,38.5-.7,93h0Z"/>
          <path class="cls-2" d="M442.7,418.3h0c50.1-3.4,85.1-18.8,104.2-45.8.6-.9.4-2.2-.5-2.8s-2.2-.4-2.8.5c-18.3,26-52.3,40.8-101.2,44.1-1.1,0-1.9,1-1.9,2.1s1,1.9,2,1.9h.2Z"/>
          <path class="cls-1" d="M682.9,447.8c0-.5-.4-1-.9-1.3-13.3-8.6-28.7-13.6-44.4-14.7-31.1-2.1-60.8,11.2-80,35.5-19.2-24.3-48.9-37.6-80-35.5-15.8,1-31.1,6.1-44.4,14.7-.5.3-.8.8-.9,1.3,0,.5,0,1.1.4,1.6,9.7,13,22.6,23.3,37.3,29.8,12.2,5.4,25.2,8.1,38.1,8.1s34.4-4.8,49.5-14.2c15.1,9.4,32.3,14.2,49.5,14.2s25.9-2.7,38.1-8.1c14.7-6.5,27.6-16.8,37.3-29.8.3-.4.5-1,.4-1.6ZM637.3,435.8c14.4,1,28.4,5.4,40.7,12.9-9.1,11.6-20.9,20.9-34.4,26.8-27.1,12-58.1,9.9-83.2-5.4,18.4-23.5,47-36.3,76.9-34.4h0ZM554.7,470.2c-25.2,15.3-56.1,17.4-83.2,5.4-13.4-5.9-25.3-15.2-34.4-26.8,12.3-7.5,26.3-11.9,40.7-12.9,29.9-2,58.5,10.8,76.9,34.4h0Z"/>
        </g>
        <g>
          <path class="cls-5" d="M668.6,418.4h.5c.9,0,1.7-.6,1.9-1.5.3-1.1-.4-2.2-1.4-2.4-54.7-14.4-92.4-34.6-112.5-60.1.2-.2.3-.4.4-.6,15.5-34.8,14.5-60.2,10.9-75.4-3.9-16.7-11.6-24.9-11.9-25.3-.4-.4-1-.7-1.6-.6-.6,0-1.1.3-1.5.8-.3.4-27.5,38-12.9,79.5,13.4,38,56.5,66.8,128,85.6h0ZM554.5,350.8c-4.4-6.2-7.7-12.6-10.1-19.4-12-33.9,5.5-65.2,10.8-73.6,5.6,7.8,23.1,38.5-.7,93h0Z"/>
          <path class="cls-5" d="M442.7,418.3h0c50.1-3.4,85.1-18.8,104.2-45.8.6-.9.4-2.2-.5-2.8s-2.2-.4-2.8.5c-18.3,26-52.3,40.8-101.2,44.1-1.1,0-1.9,1-1.9,2.1s1,1.9,2,1.9h.2Z"/>
          <path class="cls-5" d="M682.9,447.8c0-.5-.4-1-.9-1.3-13.3-8.6-28.7-13.6-44.4-14.7-31.1-2.1-60.8,11.2-80,35.5-19.2-24.3-48.9-37.6-80-35.5-15.8,1-31.1,6.1-44.4,14.7-.5.3-.8.8-.9,1.3,0,.5,0,1.1.4,1.6,9.7,13,22.6,23.3,37.3,29.8,12.2,5.4,25.2,8.1,38.1,8.1s34.4-4.8,49.5-14.2c15.1,9.4,32.3,14.2,49.5,14.2s25.9-2.7,38.1-8.1c14.7-6.5,27.6-16.8,37.3-29.8.3-.4.5-1,.4-1.6ZM637.3,435.8c14.4,1,28.4,5.4,40.7,12.9-9.1,11.6-20.9,20.9-34.4,26.8-27.1,12-58.1,9.9-83.2-5.4,18.4-23.5,47-36.3,76.9-34.4h0ZM554.7,470.2c-25.2,15.3-56.1,17.4-83.2,5.4-13.4-5.9-25.3-15.2-34.4-26.8,12.3-7.5,26.3-11.9,40.7-12.9,29.9-2,58.5,10.8,76.9,34.4h0Z"/>
        </g>
      </g>
    </g>
  </g>
</svg>